<?xml version="1.0" encoding="utf-8"?>
<!-- Generator: Adobe Illustrator 25.4.1, SVG Export Plug-In . SVG Version: 6.00 Build 0)  -->
<svg version="1.1" id="Layer_1" xmlns="http://www.w3.org/2000/svg" xmlns:xlink="http://www.w3.org/1999/xlink" x="0px" y="0px"
	 viewBox="0 0 350 250" style="enable-background:new 0 0 350 250;" xml:space="preserve">
<style type="text/css">
	.st0{fill-rule:evenodd;clip-rule:evenodd;fill:#0069FF;}
	.st1{clip-path:url(#SVGID_00000052073576865415455400000016621146958692819639_);}
	.st2{fill-rule:evenodd;clip-rule:evenodd;fill:#0031FF;}
	.st3{fill-rule:evenodd;clip-rule:evenodd;fill:#FF6E9A;}
	.st4{fill-rule:evenodd;clip-rule:evenodd;fill:#FFB8D0;}
	.st5{fill-rule:evenodd;clip-rule:evenodd;fill:#5F90FF;}
	.st6{clip-path:url(#SVGID_00000121982756352934782510000008419072755677469364_);}
	.st7{fill:#000BAC;}
	.st8{clip-path:url(#SVGID_00000147210426311581089860000015505258012363314590_);}
	.st9{fill-rule:evenodd;clip-rule:evenodd;fill:#5E90FF;}
	.st10{fill-rule:evenodd;clip-rule:evenodd;fill:#E32755;}
	.st11{clip-path:url(#SVGID_00000134931917295978599540000005482415567848841886_);}
	.st12{fill-rule:evenodd;clip-rule:evenodd;fill:#FF89AD;}
	.st13{fill-rule:evenodd;clip-rule:evenodd;fill:#E22755;}
	.st14{clip-path:url(#SVGID_00000180334886730804785070000017833351408178208902_);}
	.st15{clip-path:url(#SVGID_00000154425148509338372040000011290686569694682012_);}
	.st16{fill-rule:evenodd;clip-rule:evenodd;fill:#F1CDD7;}
	.st17{clip-path:url(#SVGID_00000098913904010125107960000002139233930003156153_);}
	.st18{fill-rule:evenodd;clip-rule:evenodd;fill:#000BAC;}
	.st19{fill-rule:evenodd;clip-rule:evenodd;fill:#FFE0EA;}
	.st20{clip-path:url(#SVGID_00000171711531832730567360000017495311557742604694_);}
	.st21{fill:#5E90FF;}
	.st22{clip-path:url(#SVGID_00000020388308796684871150000012077479458046061222_);}
</style>
<g>
	<g transform="matrix(-1.30273,0,0,1.30273,690.771,-125.903)">
		<path class="st0" d="M429.3,237.7c0,0,1.9-14.8,12.4-14.8c0,0,5.4,0.5,8.9,3.8c0,0,3.9,2.8,7.1,0.6c4.2-2.9,11.2-3.6,14.6,1.3
			c3.8,5.4,11.1-5.8,16,9.4L429.3,237.7z"/>
		<g>
			<defs>
				<path id="SVGID_1_" d="M429.3,237.7c0,0,1.9-14.8,12.4-14.8c0,0,5.4,0.5,8.9,3.8c0,0,3.9,2.8,7.1,0.6c4.2-2.9,11.2-3.6,14.6,1.3
					c3.8,5.4,11.1-5.8,16,9.4L429.3,237.7z"/>
			</defs>
			<clipPath id="SVGID_00000135689406596017275380000014741107657829182650_">
				<use xlink:href="#SVGID_1_"  style="overflow:visible;"/>
			</clipPath>
			<g style="clip-path:url(#SVGID_00000135689406596017275380000014741107657829182650_);">
				<path class="st2" d="M474.3,234.4L474.3,234.4l-0.1,0l-0.1,0.1l0,0.1l0,0.1l0,0l0,0l0,0l0.1,0l0.1,0l0.1,0l0.1,0l0.1,0l0.1,0.1
					l0.1,0.1l0.1,0.1l0,0l0,0l0.1,0.1l0.1,0.1l0.1,0.1l0.1,0.1l0.1,0.1l0.1,0.1l0.1,0.1l0.1,0.1l0.2,0.2l0,0l0.1,0.1l0.1,0.1
					l0.1,0.1l0.1,0.1l0.1,0.1l0.1,0.1l0.1,0.1l0.3,0.3l0.3,0.3l0.1,0.1l0.2,0.2l0.2,0.2l0.1,0.1l0,0l0.2,0.2l0.2,0.2l0.2,0.2
					l0.1,0.1l0.1,0.1l0.1,0.1l0.1,0.1l0.1,0.1l0.1,0.1l0.1,0.1l0.1,0.1l0.1,0.1l0.1,0.1l0.1,0.1l0.1,0.1l0.1,0.1l0,0l0.1,0.1
					l0.1,0.1l0.1,0.1l0.1,0.1l0.1,0.1l0.1,0.1l0.1,0.1l0.1,0.1l0.1,0.1l0,0l0.1,0l0.1,0.1l0.1,0.1l0.1,0.1l0.1,0.1l0.1,0.1l0.1,0.1
					l0.1,0l0,0l0.1,0l0.1,0l0.1,0l0.1,0l0.1,0l0.1,0l0,0l0,0l0,0l0,0l0,0l0,0l0,0l0,0l0,0l0,0l0,0l0,0l0,0l0.2-0.1l-0.1-0.2l0,0l0,0
					l0,0l0,0l0,0l0,0l0,0l0,0l0,0l0,0l0,0l0,0l0,0l-0.1-0.1l-0.1-0.1l-0.1-0.1l-0.1-0.1l-0.1-0.1l-0.1-0.1l0,0l-0.1,0l-0.1-0.1
					l-0.1-0.1l-0.1-0.1l-0.1-0.1l-0.1-0.1l-0.1-0.1l-0.1,0l0,0l-0.1-0.1l-0.1-0.1l-0.1-0.1l-0.1-0.1l-0.1-0.1l-0.1-0.1l-0.1-0.1
					l-0.1-0.1l-0.1-0.1l0,0l-0.1-0.1l-0.1-0.1l-0.1-0.1l-0.1-0.1l-0.1-0.1l-0.1-0.1l-0.1-0.1l-0.1-0.1L478,238l-0.1-0.1l-0.1-0.1
					l-0.1-0.1l-0.1-0.1l-0.2-0.2l-0.2-0.2l-0.2-0.2l0,0l-0.1-0.1l-0.2-0.1l-0.2-0.1l-0.1-0.1l-0.3-0.3l-0.3-0.3L476,236l-0.1-0.1
					l-0.1-0.1l-0.1-0.1l-0.1-0.1l-0.1-0.1l-0.1-0.1l0,0l-0.2-0.2l-0.1-0.1l-0.1-0.1l-0.1-0.1l-0.1-0.1l-0.1-0.1l-0.1-0.1L475,235
					l-0.1-0.1l0,0l0,0l-0.1-0.1l-0.1-0.1l-0.1-0.1l-0.1-0.1l-0.1,0l-0.1,0l-0.1,0L474.3,234.4L474.3,234.4L474.3,234.4L474.3,234.4z
					"/>
				<path class="st2" d="M449.7,224.1l-0.4,0.3l-0.2,0.2l-0.2,0.1l-0.5,0.4l-0.2,0.2l-0.7,0.6l-0.7,0.6l-0.3,0.3l-0.3,0.3l-0.3,0.3
					l-0.3,0.3l-0.1,0.1l-0.2,0.2l-0.3,0.3l-0.3,0.3l-0.3,0.3l-0.3,0.3l-0.2,0.2l-0.1,0.1l-0.3,0.3l-0.3,0.3l-0.3,0.3l-0.2,0.2
					l-0.2,0.2l0,0l-0.2,0.2l-0.2,0.2l-0.2,0.2l-0.2,0.2l-0.2,0.2l0,0l-0.1,0.2l-0.2,0.2l-0.2,0.2l-0.2,0.2l-0.2,0.2l-0.1,0.1
					l-0.1,0.1l-0.2,0.2l-0.2,0.2l-0.2,0.2l-0.2,0.2l-0.1,0.1l0,0l-0.2,0.2l-0.2,0.2l-0.1,0.2l0,0l0,0.3l0.2,0.2l0.3,0l0,0l0.2-0.2
					l0.2-0.2l0.2-0.2l0,0l0.1-0.1l0.2-0.2l0.2-0.2l0.2-0.2l0.2-0.2l0.1,0l0.1-0.1l0.2-0.2l0.2-0.2l0.2-0.2l0.2-0.2l0.2-0.1l0,0
					l0.2-0.2l0.2-0.2l0.2-0.2l0.2-0.2l0.2-0.2l0,0l0.2-0.2l0.2-0.2l0.3-0.3l0.3-0.3l0.3-0.3l0.1-0.1l0.2-0.2l0.3-0.3l0.3-0.3
					l0.3-0.3l0.3-0.3l0.2-0.2l0.1-0.1l0.3-0.3l0.3-0.3l0.3-0.3l0.3-0.3l0.7-0.6l0.7-0.6l0.2-0.2l0.4-0.5l0.1-0.2l0.2-0.2l0.3-0.3
					l0-0.2L449.7,224.1z"/>
				<path class="st2" d="M439.7,234.2l0,0.2l0,0l0.1,0.2l0,0.1l0,0.1l0.1,0.1l0.2,0.2l0.2,0.2l0,0l0.2,0.2l0.2,0.2l0.2,0.2l0.1,0.1
					l0.1,0.1l0.2,0.2l0.2,0.2l0.2,0.2l0.2,0.2l0.2,0.2l0.2,0.2l0.1,0.1l0.1,0.1l0.2,0.2l0.2,0.2l0.2,0.2l0.2,0.2l0,0l0.2,0.2
					l0.2,0.2l0.1,0.1l0.1,0.1l0.2,0.2l0.1,0.1l0.1,0.1l0.2,0.2l0.2,0.1l0,0l0.2,0.2l0.2,0.2l0.1,0.1l0.1,0.1l0.2,0.2l0.2,0.2
					l0.2,0.2l0.2,0l0-0.2l-0.2-0.2l-0.2-0.2l-0.2-0.2l-0.1-0.1l-0.1-0.1l-0.2-0.2l-0.2-0.2l0,0l-0.1-0.2l-0.2-0.2l-0.1-0.1l-0.1-0.1
					l-0.2-0.2l-0.1-0.1l-0.1-0.1l-0.2-0.2l-0.2-0.2l0,0l-0.2-0.2l-0.2-0.2l-0.2-0.2l-0.2-0.2l-0.1-0.1l-0.1-0.1l-0.2-0.2l-0.2-0.2
					l-0.2-0.2l-0.2-0.2l-0.2-0.2l-0.2-0.2l-0.1-0.1l-0.1-0.1l-0.2-0.2l-0.2-0.2l-0.2-0.2l0,0l-0.2-0.1l-0.2-0.2l-0.1-0.1l-0.1,0
					l-0.1,0l-0.2,0l0,0L439.7,234.2z"/>
				<path class="st2" d="M457.9,225.5l-0.3,0.3l-0.3,0.3l-0.3,0.3l0,0l-0.2,0.3l-0.4,0.4l-0.1,0.1l-0.4,0.4l-0.1,0.1l-0.5,0.6
					l-0.3,0.4l-0.1,0.2l-0.5,0.6l-0.2,0.3L454,230l0,0l-0.2,0.2l-0.2,0.3l-0.2,0.3l-0.2,0.3l-0.2,0.3l-0.2,0.3l-0.2,0.3l-0.2,0.3
					l-0.2,0.2l-0.1,0.1l-0.2,0.3l-0.2,0.3l-0.2,0.3l0,0l-0.2,0.3l-0.2,0.3l0,0l-0.1,0.1l-0.1,0.1l0,0l0,0.2l-0.1,0.2l0,0.2l0.2,0
					l0.2-0.1l0.2-0.1l0,0l0.1-0.1l0.1-0.1l0,0l0.2-0.3l0.2-0.3l0,0l0.2-0.3l0.2-0.3l0.2-0.3l0.1-0.1l0.2-0.2l0.2-0.3l0.2-0.3
					l0.2-0.3l0.2-0.3l0.2-0.3l0.2-0.3l0.2-0.3l0.2-0.2l0,0l0.2-0.3l0.2-0.3l0.5-0.6l0.1-0.2l0.3-0.4l0.5-0.6l0.1-0.1l0.3-0.5
					l0.1-0.1l0.3-0.5l0.2-0.3l0,0l0.2-0.3l0.2-0.3l0.2-0.3l0-0.2L457.9,225.5z"/>
				<path class="st2" d="M456,234.6l-0.1,0.2l-0.1,0.2l0,0l0.1,0l0.1,0l0,0l0,0l0,0l0,0l0,0l0,0l0,0l0,0l0,0l0,0l0,0l0,0l0,0l0,0
					l0,0l0,0l0,0l0,0l0,0l0,0l0,0l0,0l0,0l0,0l0,0l0,0l0,0l0,0l0,0l0,0l0,0l0,0.1l0,0l0.1,0.1l0.1,0.1l0.1,0.1l0.1,0.1l0.1,0.1
					l0.1,0.1l0.1,0.1l0.2,0.2l0.2,0.2l0,0l0.1,0.1l0.1,0.1l0.1,0.1l0.1,0.1l0.1,0.1l0.1,0.1l0.1,0.1l0,0l0.1,0.1l0.1,0.1l0.1,0.1
					l0.1,0.1l0.1,0.1l0.1,0.1l0.1,0.1l0,0l0.1,0.1l0.1,0.1l0.1,0.1l0.1,0.1l0.1,0.1l0.1,0.1l0.1,0.1l0.1,0.1l0.1,0.1l0.1,0.1
					l0.1,0.1l0,0l0.1,0.1l0.1,0.1l0.1,0.1l0.1,0.1l0.1,0.1l0.1,0.1l0,0l0.1,0l0.1,0.1l0.1,0.1l0.1,0.1l0.1,0.1l0.1,0l0-0.1l-0.1-0.1
					l-0.1-0.1l-0.1-0.1l-0.1-0.1l-0.1-0.1l0,0l-0.1-0.1l-0.1-0.1l-0.1-0.1l-0.1-0.1l-0.1-0.1l-0.1-0.1l0,0l-0.1-0.1l-0.1-0.1
					l-0.1-0.1l-0.1-0.1l-0.1-0.1l-0.1-0.1l-0.1-0.1l-0.1-0.1l-0.1-0.1l-0.1-0.1l-0.1-0.1l0,0l-0.1-0.1l-0.1-0.1l-0.1-0.1l-0.1-0.1
					l-0.1-0.1l-0.1-0.1l-0.1-0.1l0,0l-0.1-0.1l-0.1-0.1l-0.1-0.1l-0.1-0.1l-0.1-0.1l-0.1-0.1l-0.1-0.1l0,0l-0.2-0.2l-0.2-0.2
					l-0.1-0.1l-0.1-0.1l-0.1-0.1l-0.1-0.1l-0.1-0.1l-0.1-0.1l-0.1-0.1l0-0.1l0-0.1l0-0.1l0-0.1l0-0.1l0-0.1l0-0.1l0-0.1l0,0l0,0
					l0-0.1l0-0.1l-0.1,0l-0.1,0l-0.1,0l-0.1,0l-0.1,0l-0.1,0l-0.1,0l-0.1,0l-0.1,0l-0.1,0l-0.1,0l-0.1,0l0,0l-0.1,0l-0.1,0l-0.1,0
					l-0.1,0l-0.1,0l-0.1,0l-0.1,0l-0.1,0l-0.1,0l-0.1,0l0,0L456,234.6z"/>
				<path class="st2" d="M472,224.2l-0.2,0.2l-0.2,0.2l-0.2,0.2l-0.2,0.2l-0.2,0.2l-0.2,0.2l-0.2,0.2l0,0l-0.2,0.2l-0.2,0.2
					l-0.2,0.2l-0.2,0.2l-0.2,0.2l-0.2,0.2l-0.1,0.1l-0.1,0.1l-0.2,0.2l-0.2,0.2l-0.2,0.2l-0.2,0.2l-0.2,0.2l0,0l-0.2,0.2l-0.2,0.2
					l-0.2,0.2l-0.2,0.2l-0.2,0.2l-0.2,0.2l-0.1,0.1l-0.1,0.1l-0.2,0.2l-0.2,0.2l-0.4,0.4l-0.4,0.4l-0.1,0.1l0,0l-0.1,0.1l-0.1,0.1
					l-0.1,0.1l-0.1,0.1l-0.1,0.1l-0.2,0.2l-0.2,0.2l-0.2,0.2l-0.2,0.2l-0.1,0.1l-0.1,0.1l-0.1,0.1l-0.1,0.1l-0.1,0.1l-0.1,0.1
					l-0.1,0.1l-0.1,0.1l0,0l-0.1,0.1l-0.1,0.1l-0.1,0.1l0,0.1l0,0.1l0,0.1l0,0.1l0,0.1l0,0.1l0,0.1l0,0.1l0,0l0,0.1l0,0.1l0,0.1
					l0,0.1l0,0.1l0,0.1l0,0.2l0.2,0l0.1,0l0.1,0l0.1,0l0.1,0l0.1,0l0.1,0l0,0l0-0.1l0-0.1l0-0.1l0-0.1l0-0.1l0-0.1l0-0.1l0-0.1
					l0.1-0.1l0.1-0.1l0.1-0.1l0,0l0.1-0.1l0.1-0.1l0.1-0.1l0.1-0.1l0.1-0.1l0.1-0.1l0.1-0.1l0.1-0.1l0.2-0.2l0.2-0.2l0.2-0.2
					l0.2-0.2l0.1-0.1l0.1-0.1l0.1-0.1l0.1-0.1l0.1-0.1l0,0l0.1-0.1l0.4-0.4l0.4-0.4l0.2-0.2l0.2-0.2l0.1-0.1l0.1-0.1l0.2-0.2
					l0.2-0.2l0.2-0.2l0.2-0.2l0.2-0.2l0.2-0.2l0,0l0.2-0.2l0.2-0.2l0.2-0.2l0.2-0.2l0.2-0.2l0.1-0.1l0.1-0.1l0.2-0.2l0.2-0.2
					l0.2-0.2l0.2-0.2l0.2-0.2l0.2-0.2l0,0l0.2-0.2l0.2-0.2l0.2-0.2l0.2-0.2l0.2-0.2l0.2-0.2l0.2-0.2l0-0.2L472,224.2z"/>
				<path class="st2" d="M435.5,233.7l-0.2,0l-0.2,0l-0.2,0l-0.2,0l-0.2,0l-0.2,0l-0.2,0l-0.2,0l-0.2,0l-0.2,0l-0.2,0l-0.2,0l-0.2,0
					l-0.2,0l-0.2,0l-0.2,0l-0.2,0l-0.2,0l-0.2,0l-0.2,0l-0.2,0l-0.2,0l-0.2,0l-0.2,0l-0.2,0l-0.2,0l-0.2,0l-0.2,0l-0.2,0l-0.2,0
					l-0.2,0l-0.2,0l-0.2,0l-0.2,0l-0.2,0l-0.2,0l-0.2,0l-0.2,0l-0.2,0l-0.2,0l-0.2,0l-0.2,0l-0.2,0l0,0l-0.1,0l-0.2,0l-0.2,0l-0.2,0
					l-0.2,0l-0.2,0l-0.2,0l-0.2,0l-0.2,0l-0.2,0l-0.2,0l-0.2,0l-0.2,0l-0.2,0l-0.2,0.1l0,0l-0.1,0.2l0.1,0.2l0.2,0.1l0,0l0.2,0
					l0.2,0l0.2,0l0.2,0l0.2,0l0.2,0l0.2,0l0.2,0l0.2,0l0.2,0l0.2,0l0.2,0l0.2,0l0.2,0l0.1,0l0,0l0.2,0l0.2,0l0.2,0l0.2,0l0.2,0
					l0.2,0l0.2,0l0.2,0l0.2,0l0.2,0l0.2,0l0.2,0l0.2,0l0.2,0l0.2,0l0.2,0l0.2,0l0.2,0l0.2,0l0.2,0l0.2,0l0.2,0l0.2,0l0.2,0l0.2,0
					l0.2,0l0.2,0l0.2,0l0.2,0l0.2,0l0.2,0l0.2,0l0.2,0l0.2,0l0.2,0l0.2,0l0.2,0l0.2,0l0.2,0h0.2l0.2,0l0.2,0l0.2,0l0.2,0l0.2,0
					l0.2,0l0.2,0l0.2,0l0.2,0l0.2,0l0.3,0l0.3,0l0.3,0l0.3,0l0.3,0l0.1,0l0.3,0l0.3,0l0.3,0l0.3,0l0.3,0l0.3,0l0.7,0l0.7,0l0.7,0
					l0.7,0l0.3,0l0.3,0l0.3,0l0.3,0l0.3,0l0,0l0.3,0l0.3,0l0.3,0l0.3,0l0.3,0l0.3,0l0.2,0l0.2,0l0.5,0l0.5,0l0.5,0l0.5,0l0.6,0
					l0.6,0l0.6,0l0.2,0l0.4,0h0.6l0.6,0l0.6,0l0.6,0l1.3,0l1.3,0l1.3,0l1.3,0l2.7,0l1.4,0l1.4,0l0.9,0l0.5,0l1.4,0l0.7,0l0.7,0
					l0.7,0l0.7,0l0.7,0l0.7,0l0.7,0h0.2l0.5,0l0.7,0l0.7,0l0.7,0h0.7l0.7,0l0.7,0l0.7,0l0.3,0l0.4,0l0.7,0l0.7,0l0.7,0l0.2,0l0.5,0
					l0.6,0l0.6,0l0.6,0l0.6,0l0.4,0l0.2,0l0.3,0l0.3,0l0.3,0l0.3,0l0.3,0l0.3,0l0.3,0l0.3,0l0.3,0l0.3,0l0.3,0l0.3,0l0.3,0l0.3,0
					l0.1-0.1l-0.1-0.1l-0.3,0l-0.3,0l-0.3,0l-0.3,0l-0.3,0l-0.3,0l-0.3,0l-0.3,0l-0.3,0l-0.3,0l-0.3,0l-0.3,0l-0.3,0l-0.3,0l-0.2,0
					l-0.4,0l-0.6,0l-0.6,0l-0.6,0l-0.6,0l-0.5,0l-0.2,0l-0.7,0l-0.7,0l-0.7,0l-0.4,0l-0.3,0l-0.7,0l-0.7,0l-0.7,0l-0.7,0l-0.7,0
					l-0.7,0l-0.7,0l-0.5,0l-0.2,0l-0.7,0l-0.7,0l-0.7,0l-0.7,0l-0.7,0l-0.7,0l-0.7,0l-1.4,0l-0.5,0l-0.9,0l-1.4,0l-1.4,0l-2.7,0
					l-1.3,0l-1.3,0l-1.3,0l-1.3,0l-0.6,0l-0.6,0l-0.6,0l-0.6,0l-0.4,0h-0.2l-0.6,0l-0.6,0l-0.5,0l-0.5,0l-0.5,0l-0.5,0l-0.5,0
					l-0.2,0l-0.2,0l-0.3,0l-0.3,0l-0.3,0l-0.3,0l-0.3,0l-0.3,0l0,0l-0.3,0l-0.3,0l-0.3,0l-0.3,0l-0.3,0l-0.7,0l-0.7,0l-0.7,0l-0.7,0
					l-0.3,0l-0.3,0l-0.4,0l-0.4,0l-0.4,0l-0.4,0l-0.1,0l-0.3,0l-0.4,0l-0.4,0l-0.4,0l-0.4,0l-0.2,0l-0.2,0l-0.2,0l-0.2,0l-0.2,0
					h-0.2H435.5z"/>
			</g>
		</g>
		<g transform="matrix(1.5562,-0.606457,0.579229,1.48753,-382.56,70.1519)">
			<path class="st3" d="M425.7,266.2c0,0,0.2-31,24.8-36.1C450.6,230.1,454.6,256.5,425.7,266.2z"/>
		</g>
		<g transform="matrix(-0.76762,0,0,0.76762,539.866,95.084)">
			<path class="st4" d="M120,83.3c-0.5-1.9-1-3.8-1.4-5.7c-1.1-4.3-1.8-8.8-2.9-13.2c0,0-0.2-0.8,0.2-0.5l0.2,0.3
				c2,6.8,3.5,13.7,5.5,20.9c0,0,0.6,2.1,1,3.6c0.1,0.4,0.2,0.7,0.3,1.1c0.1-0.1,0.1-0.1,0.1-0.1c3.2-3.5,6.9-6.6,9.9-10.1
				c0.1,0,0.2,0,0.2,0s-1.7,2.5-2.7,3.6c-2.4,2.7-5,5.2-7.3,7.9c1.5,5.5,3.1,11,4.6,16.5c0.2-0.2,0.3-0.4,0.5-0.5
				c0.6-0.7,1.2-1.4,1.8-2c3.3-3.8,6.5-7.7,9.3-12c0,0,0.1-0.2,0.2,0.1c-1.1,1.9-2.2,3.7-3.4,5.5c0,0-1.1,1.6-1.8,2.5
				c-0.9,1.2-1.9,2.4-2.8,3.6c-1.1,1.3-2.2,2.6-3.3,3.8l-0.1,0c0.7,2.5,1.4,4.9,2.1,7.4l0,0l0.2,0.1l-0.2,0c0.7,2.4,1.4,4.9,2.1,7.3
				c0,0,0.5,2,0.9,3.5l0.1,0.2c0.3,1.3,0.7,2.7,1,4l0.4,1.5c0.3,1.2,0.6,2.4,1,3.7l-0.2,0.4l-0.3-0.2l-0.6-1.8
				c-0.8-2.4-1.6-4.8-2.4-7.2c0,0-0.7-2.2-1.1-3.6c-0.2-0.6-0.4-1.2-0.5-1.8c-0.5-1.8-1.1-3.6-1.6-5.5l0-0.1c-0.6,0.1-1,0.2-1,0.2
				s-2.6,0.2-4.6,0.2c-3.8,0-7.8-0.1-11.2-1.6l-0.2-0.2c0,0,0.1-0.1,0.3,0c0.7,0.1,1.1,0.2,1.7,0.3c4.4,1,9,0.7,13.4,0.5
				c0,0,0.6,0,1.4,0.1l0,0c-1.5-5.1-2.9-10.2-4.3-15.3c-0.4,0-1.1-0.1-2.3-0.1c-3.4-0.2-6.8-1.1-10-2.2l-3-1.3l-0.3-0.2
				c0,0,0.2,0,0.4,0c4.8,1.6,9.7,2.7,14.3,2.8c0.3,0,0.5,0,0.7,0c-1.4-5-2.7-10-4-15.1c-2.7-1.2-5.4-2.4-7.9-4.1c0,0-1.3-1-2.4-2
				l-0.2-0.3c0,0,0.2,0,0.3,0.1c1.4,1,2.6,1.7,5.3,3C117,81.8,118.5,82.5,120,83.3z"/>
		</g>
	</g>
	<g transform="matrix(1.48894,-0.861932,1.16007,2.00525,-683.222,-173.654)">
		<path class="st5" d="M312,296.1c0,0,5.8-16.4-12-31.8c-3.7-3.2-13.9-5.5-12.6,6.6C288.2,278.6,300.8,293.7,312,296.1z"/>
		<g>
			<defs>
				<path id="SVGID_00000030471730867115899890000008768667209195451028_" d="M312,296.1c0,0,5.8-16.4-12-31.8
					c-3.7-3.2-13.9-5.5-12.6,6.6C288.2,278.6,300.8,293.7,312,296.1z"/>
			</defs>
			<clipPath id="SVGID_00000146490142408047324650000018226148480780276370_">
				<use xlink:href="#SVGID_00000030471730867115899890000008768667209195451028_"  style="overflow:visible;"/>
			</clipPath>
			<g style="clip-path:url(#SVGID_00000146490142408047324650000018226148480780276370_);">
				<g transform="matrix(1.09129,0.115602,-0.141182,0.866832,20.3061,15.4083)">
					<path class="st0" d="M283.8,253.5c0-0.1-0.1-0.3-0.1-0.4c-0.2-2.8,0.9-5.6,3.1-7.7c0,0,0.1-0.1,0.1,0.1
						c-0.1,0.1-0.1,0.1-0.2,0.2c-2,2.5-2.8,5.8-2.1,9c0.8,1.1,1.7,2.1,2.5,3.1c0.2-1.4,0.8-4.2,3-6.2c0.6-0.6,1.6-1.3,1.6-1.3
						c0.1,0,0.2,0,0.3,0c0,0-2,2.3-3,3.6c-0.9,1.3-1.5,2.8-1.6,4.4c1.1,1.4,2.2,2.7,3.3,4.1c0,0,0.1,0,0.1,0
						c-0.1-0.3-0.1-0.6-0.1-0.9c0,0,0-1.9,0.6-3.6c0.1-0.4,1.8-3.6,4.4-5.6c0,0,0.1-0.1,0.2,0c0,0-2.9,3.5-3.7,5.3
						c-0.7,1.8-1,3.8-0.9,5.6c1,1.2,1.9,2.5,2.9,3.7c0.1-1.6,0.6-5.1,2.5-7.6c0,0,0.9-1,1.8-1.9c0,0,0.2-0.2,0.2,0.2
						c0,0-1.9,2.8-2.4,3.8c-0.1,0.2-0.2,0.4-0.3,0.6c-0.8,1.8-1.2,3.7-1.3,5.7c0.3,0.4,0.6,0.8,0.9,1.2c0.4,0.6,0.9,1.1,1.3,1.7
						c-0.1-2.6,0.9-5.1,2-7.4l1.1-1.7c0,0,0.3-0.5,0.3-0.2c0,0-0.4,0.9-0.8,2c0,0-1.4,3-1.8,5.1c-0.2,1-0.2,2-0.1,3
						c1,1.2,2.1,2.3,3.3,3.4l0.2,0.6c0,0-0.4,0.1-0.9-0.2c-1.1-1-2.2-2-3.2-3.1c-0.8,0.2-2.4,0.8-3.2,1.3c-0.9,0.6-1.7,1.3-2.3,2.3
						l-0.2,0.1c0,0,0.2-0.7,0.6-1.2c1.2-1.5,3-2.5,4.9-2.7c-1-1-1.9-2.1-2.8-3.2c-3.6-0.3-7.4,2.3-8.8,5.4l-0.2,0.1
						c0,0,0.1-0.6,0.3-1.1c1.5-2.9,4.5-5.2,7.8-5.1c0.1,0,0.2,0,0.4,0c-1.2-1.5-2.3-3-3.5-4.6c-0.9,0.2-2.3,0.6-3.4,1
						c-1.8,0.8-3.3,2.3-4.1,4l-0.2,0.1c0,0,0.7-2.5,2.5-3.8c1.4-1,3.1-1.6,4.7-1.9c-0.8-1-1.5-2-2.3-2.9l-0.5-0.6
						c-1.5-0.2-3.1-0.1-4.5,0.7c-0.3,0.2-0.7,0.4-1,0.6c-0.6,0.4-1,0.9-1.4,1.5l-0.2,0.1c0,0,1.7-3.5,5.4-3.6c0.1,0,0.1,0,0.1,0
						c0.4,0,0.8,0.1,1.2,0.1l-0.8-1c-0.7-1-1.7-2.3-1.7-2.3c-0.2-0.2-0.3-0.5-0.5-0.7c-1.4,0.3-4.7,1.2-5.7,2.3
						c-0.3,0.4-0.9,1-0.6,0.4c0.9-2.1,3.3-3.1,5.9-3.2c-1-1.5-2-2.9-3-4.5c0,0-0.4-0.5,0.1-0.4c0,0,1.5,1.8,2.4,2.9
						C283,252.5,283.4,253,283.8,253.5z"/>
				</g>
			</g>
		</g>
	</g>
	<g transform="matrix(0.739271,0,1.59679e-32,0.788375,236.84,253.787)">
		<path class="st7" d="M-100.7-121.4c-2.2-6-6.9-10.9-12.8-13.4c0-0.8,0-1.7-0.1-2.5c-1.1-15.6-14.6-27.3-30.1-26.2
			c-8.9,0.6-16.5,5.3-21.2,12.1c-3.8-9-13-15-23.3-14.3c-12.9,0.9-22.7,12.1-21.8,25c0,0.2,0,0.5,0.1,0.7c-2.7-2.2-6.1-3.5-9.8-3.5
			c-8.5,0-15.5,6.9-15.5,15.5c0,2.1,0.4,4.1,1.2,6c-19.8-4-35.4,10.8-32.6,23.6h198.9C-67.7-98.5-70.4-124.3-100.7-121.4"/>
		<g>
			<defs>
				<path id="SVGID_00000087398083294134619820000016620101994377856413_" d="M-100.7-121.4c-2.2-6-6.9-10.9-12.8-13.4
					c0-0.8,0-1.7-0.1-2.5c-1.1-15.6-14.6-27.3-30.1-26.2c-8.9,0.6-16.5,5.3-21.2,12.1c-3.8-9-13-15-23.3-14.3
					c-12.9,0.9-22.7,12.1-21.8,25c0,0.2,0,0.5,0.1,0.7c-2.7-2.2-6.1-3.5-9.8-3.5c-8.5,0-15.5,6.9-15.5,15.5c0,2.1,0.4,4.1,1.2,6
					c-19.8-4-35.4,10.8-32.6,23.6h198.9C-67.7-98.5-70.4-124.3-100.7-121.4"/>
			</defs>
			<clipPath id="SVGID_00000176018583364076686080000012024401001882304398_">
				<use xlink:href="#SVGID_00000087398083294134619820000016620101994377856413_"  style="overflow:visible;"/>
			</clipPath>
			<g style="clip-path:url(#SVGID_00000176018583364076686080000012024401001882304398_);">
				<g transform="matrix(0.860559,0,-1.85237e-32,0.857597,-293.032,-125.334)">
					<path class="st9" d="M105.1,9L89,8.5l25.5-27.2l25.8,28.5l-15.4-0.4v27.8h-19.7V9z"/>
				</g>
			</g>
		</g>
	</g>
	<g transform="matrix(-6.6449,-1.74026,-1.06671,4.81112,1826.64,-893.951)">
		<path class="st10" d="M196,283.7c2.8,2.2,0.8,7.6-3.4,7c-2.5-0.4-5-4.8-2.2-7c2.8-2.2-2.3-3.1,0-5.7c2.3-2.6,1.3-1.8,1.2-4.5
			c-0.1-0.9,0.3-2.1,1.4-2.4c1.1-0.3,2,1.4,1.9,2.4c-0.2,2.7-1.1,1.9,1.2,4.5C198.3,280.6,193.2,281.5,196,283.7z"/>
		<g>
			<defs>
				<path id="SVGID_00000026868181899149087500000014857296181929320619_" d="M196,283.7c2.8,2.2,0.8,7.6-3.4,7
					c-2.5-0.4-5-4.8-2.2-7c2.8-2.2-2.3-3.1,0-5.7c2.3-2.6,1.3-1.8,1.2-4.5c-0.1-0.9,0.3-2.1,1.4-2.4c1.1-0.3,2,1.4,1.9,2.4
					c-0.2,2.7-1.1,1.9,1.2,4.5C198.3,280.6,193.2,281.5,196,283.7z"/>
			</defs>
			<clipPath id="SVGID_00000148653261137508406800000004299311146298242205_">
				<use xlink:href="#SVGID_00000026868181899149087500000014857296181929320619_"  style="overflow:visible;"/>
			</clipPath>
			<g style="clip-path:url(#SVGID_00000148653261137508406800000004299311146298242205_);">
				<g transform="matrix(0.165869,0.0853633,-0.07045,0.200981,168.545,258.543)">
					<path class="st4" d="M165.6,44.7c-0.2-0.5-0.5-1-0.7-1.5c-2.3-5.3-4.6-10.7-6.7-16.2l-0.1-0.3c-0.7-2-1.6-4.6-1.6-4.6l-0.6-1.6
						c-1.5-4.2-2.9-8.4-4.6-12.6l0.1-0.6c0.2,0.1,0.3,0.1,0.5,0.2c2,4.1,3.7,8.3,5.5,12.4l0.7,1.6c0.5,1.3,1,2.5,1.6,3.8l0.3,0.7
						c0.3,0.8,0.6,1.6,1,2.4c1.7,4.4,3.6,8.7,5.4,13c0.4-1.4,1-2.7,1.5-4c0.8-2,1.5-3.9,2.3-5.8c0,0,1.2-2.8,2.1-5
						c0,0,0.1-0.3,0.2,0.1c-1.5,4.7-3.3,9.3-5.1,14c-0.2,0.6-0.4,1.2-0.6,1.8c3.9,8.8,7.9,17.5,11.8,26.4c0.1,0.2,0.1,0.3,0.2,0.5
						c0.1-0.4,0.3-0.9,0.5-1.3l0-0.1c2-4.5,4.8-8.6,6.7-13l0.6-0.3c0,0,0.1,0.4,0.2,0.5c-1.9,4.5-4.5,8.6-6.4,13.1
						c0,0-0.5,1-1.1,2.3c3.3,7.7,6.7,15.3,10.3,22.9l1.1,2.9c0.1,0.5,0.1,0.5,0.2,1.1l-0.3,1.1c0,0-0.7-0.3-1-0.5
						c0,0-0.4-0.4-0.9-0.9c-0.6-1-1.3-2.4-1.3-2.4c-4.2-8.9-8.1-18-12-27c-2-0.2-4.1-0.5-6.1-0.8l-2.3-0.4c-0.6-0.1-1.4-0.3-1.4-0.3
						c-0.2-0.1-0.4-0.1-0.6-0.2c-0.5-0.1-1-0.2-1.5-0.3c-0.7-0.2-1.1-0.2-1.1-0.2l-0.3-0.4c0,0,0.3-0.3,0.6-0.2
						c1.3,0.1,3.1,0.3,3.1,0.3c0.7,0.1,1.4,0.2,1.4,0.2c2.6,0.5,5.2,1.1,7.8,1.5c-2.9-6.9-5.9-13.8-8.8-20.6
						c-3.5-2.8-7.2-5.3-11.1-7.5c0,0-1.9-1.2-3.2-1.9c0,0-0.3-0.4,0.4-0.1c1.3,0.6,3.1,1.5,3.1,1.5C159,40,162.4,42.2,165.6,44.7z"
						/>
				</g>
			</g>
		</g>
	</g>
	<g transform="matrix(1.43357,-0.167992,0.170237,1.41467,-240.904,-204.911)">
		<g transform="matrix(1,0,0,1,-16.7197,88.2112)">
			<path class="st12" d="M316.8,210.3c0.1-6.8,5.2-13.4,11.3-16c3.9-1.7,9.8-2.4,11.7-6.5c2.8-5.8-0.5-12.4,5.3-17.2
				c2.9-2.4,13.6-7.6,14.7-0.4c0.7,4.4-4.7,6.9-5.8,10.7c-1.9,7,4.6,14.5-0.4,21.1c-3.5,4.6-11.3,4.4-14.1,9.3
				c-2.7,4.8-1,12.3-5,16.5c-1.4,1.4-3.1,2.4-4.9,3.1c-1.2,0.4-13.2-0.1-13.2-0.1s-0.7-9.1-0.2-16L316.8,210.3z"/>
		</g>
		<g transform="matrix(1,0,0,1,-16.7197,88.2112)">
			<path class="st13" d="M352.2,172.6l-0.1,0.1l-0.1,0.1L352,173l-0.1,0.1l-0.1,0.1l0,0l-0.1,0.1l-0.1,0.1l-0.1,0.1l-0.1,0.1
				l-0.1,0.1l-0.1,0.1l-0.1,0.1l0,0.1l0,0.1l0,0.1l0,0.1l0,0.1l0,0.1l0,0.1l0,0.1l0,0.1l0,0.1l0,0.1l0,0.1l0,0.1l0,0.1l0,0.1l0,0.1
				l0,0.1l0,0.1l0,0.1l0,0.1l0,0.1l0,0.1l0,0.1l0,0.1l0,0.1l0,0.1l0,0.1l0,0.1l0,0.1l0,0.1l0,0.1l0,0.1l0,0.1l0,0.1l0,0.1l0,0.1
				l0,0.1l0,0.1l0,0.1l0,0.1l0,0.1l0,0.1l0,0.1l0,0.1l0,0.1l0,0.1l0,0.1l0,0.1l0,0.1l0,0.1l0,0.1l0,0.1l0,0l0,0.1l0,0.1l0,0.1l0,0.1
				l0,0.1l0,0.1l0,0.1l0,0.1l0,0.1l0,0.1l0,0.1l0,0.1l0,0.1l0,0.1l0,0.1l0,0.1l0,0.1l0,0.1l0,0.1l0,0.1l0,0.1l0,0.1l0,0.1l0,0.1
				l0,0.1l0,0.1l0,0.1l0,0.1l0,0.1l0,0.1l0,0.1l0,0.1l0,0.1l0,0.1l0,0.1l0,0.1l0,0.1l0,0.1l0,0.1l0,0.1l0,0.1l0,0.1l0,0.1l0,0.1
				l0,0.1l0,0.1l0,0.1v0l0,0.1l0,0.1l0,0.1l0,0.1l0,0.1v0l0,0l0,0l0,0l0,0l0,0l0,0l0,0l0,0l0,0l0,0.1l0,0.1l0,0.1l0,0.1l0,0.1l0,0.1
				l0,0.1l0,0.1l0,0.1l0,0.1l0,0.1l0,0.1l0,0.1l0,0.1l0,0.1l0,0.1l0,0.1l0,0.1l0,0.1l0,0l0,0l0,0.1l0,0.1l0,0.1l0,0.1l0,0.1l0,0.1
				l0,0.1l0.1,0.2l0.1,0.2l0.1,0.2l0.1,0.2l0.1,0.4l0.1,0.2l0.1,0.2l0.1,0.2l0,0.1l0,0.1l0,0.1l0,0.1l0,0.1l0,0.1l0,0.1l0,0.1l0,0.1
				l0,0.1l0,0.1l0,0.1l0,0.1l0,0.1l0,0.1l0,0.1l0,0.1l0,0.1l0,0.1l0,0.1l0,0.1l0,0.1l0,0.1l0,0.1l0,0.1l0,0.1l0,0.1l0,0.1l0,0.1
				l0,0.1l0,0.1l0,0.1l0,0.1l0,0.1l0,0.1l0,0.1l0,0.1l0,0.1l0,0.1l0,0.1l0,0.1l0,0.1l0,0.1l0,0.1l0,0.1l0,0.1l0,0.1l0,0.1l0,0.1
				l0,0.1l0,0.1v0.1l0,0.1l0,0.1l0,0.1l0,0.1l0,0.1l0,0.1l0,0.1l0,0.1l0,0.1l0,0.1l0,0.1l0,0.1l0,0.1l0,0.1l0,0.1l0,0.1l0,0.1l0,0.1
				l0,0.1l0,0.1l0,0.1l0,0.1l0,0.1l0,0.1l0,0.1l0,0.1l0,0.1l0,0.1l0,0.1l0,0.1l0,0.1l0,0.1l0,0.1l0,0.1l0,0.1l0,0.1l0,0.1l0,0.1
				l0,0.1l0,0.1l0,0l0,0l0,0.1l0,0.1l0,0.1l0,0.1l0,0.1l0,0.1l0,0.1l0,0.1l0,0.1l0,0.1l0,0.1l0,0.1l0,0.1l0,0.1l0,0.1l0,0.1l0,0.1
				l0,0.1l0,0.1l0,0.1l0,0.1l0,0.1l0,0.1l0,0.1l0,0.1l0,0.1l0,0.1l0,0.1l0,0.1l0,0.1l0,0.1l0,0.1l0,0.1l0,0.1l0,0.1l0,0.1l0,0.1
				l0,0.1l0,0.1l0,0.1l0,0.1l0,0.1l0,0.1l0,0.1l0,0.1l0,0.1l0,0.1l0,0.1l0,0.1l0,0.1l0,0.1l0,0.1l0,0.1l0,0.1l0,0.1l0,0.1l0,0.1
				l0,0.1l0,0.1l0,0.1l0,0.1l0,0.1l0,0.1l0,0.1l0,0.1l0,0.1l0,0.1l0,0.1l0,0.1l0,0.1l0,0.1l0,0.1l0,0.1l0,0.1l0,0.1l0,0.1l0,0.1
				l0,0.1l0,0.1l0,0.1l0,0.1l0,0.1l0,0.1l0,0.1l0,0.1l0,0.1l0,0l0,0l0,0l0,0l0,0l0,0l0,0l0,0l0,0l0,0l0,0l0,0l-0.1,0l0,0l-0.1,0l0,0
				l-0.1,0l-0.1,0l-0.1,0l-0.1,0l-0.1,0l-0.1,0l-0.1,0l-0.1,0l-0.1,0l-0.1,0l-0.1,0l-0.1,0.1l-0.1,0.1l-0.1,0.1l-0.1,0.1l-0.1,0.1
				l-0.1,0.1l-0.1,0.1l-0.1,0.1l-0.1,0.1l-0.1,0.1l-0.1,0.1l-0.1,0.1l-0.1,0.1l-0.1,0.1l-0.1,0.1l-0.1,0.1l-0.1,0.1l-0.1,0.1
				l-0.1,0.1l-0.1,0.1l-0.1,0.1l-0.1,0.1l-0.1,0.1l-0.1,0.1l-0.1,0.1L342,202l-0.1,0.1l-0.1,0.1l-0.1,0.1l-0.1,0.1l-0.1,0.1
				l-0.1,0.1l-0.1,0l-0.1,0l-0.1,0l-0.1,0l-0.1,0l-0.1,0l-0.1,0l-0.1,0l0,0l-0.2,0.1l-0.2,0.1l-0.2,0.1l-0.2,0.1l-0.2,0.1l-0.2,0.1
				l-0.5,0.2l-0.2,0.1l-0.2,0.1l-0.2,0.1l-0.2,0.1l-0.2,0.1l-0.1,0l-0.1,0l-0.1,0l-0.1,0l-0.1,0l-0.1,0l-0.1,0l-0.1,0l-0.1,0
				l-0.1,0.1l-0.1,0.1l-0.1,0.1l-0.1,0.1l-0.1,0.1l-0.1,0.1l-0.1,0.1l-0.1,0.1l-0.1,0.1l-0.1,0.1l-0.1,0.1l-0.1,0.1l-0.1,0.1
				l-0.1,0.1l-0.1,0.1l-0.1,0.1l-0.1,0.1l-0.1,0.1l-0.1,0.1l-0.1,0.1l-0.1,0.1l-0.2,0.1l-0.2,0.1l-0.2,0.1L333,206l-0.2,0.1
				l-0.2,0.1l-0.2,0.1l-0.2,0.1l-0.2,0.1l-0.2,0.1l-0.2,0.1l-0.2,0.1l-0.2,0.1l-0.2,0.1l-0.2,0.1l-0.2,0.1l-0.2,0.1L330,208
				l-0.2,0.1l-0.2,0.1l-0.2,0.1l-0.2,0.1l-0.2,0.1l-0.2,0.1l-0.1,0.1l-0.1,0.1l-0.1,0.1l-0.1,0.1l-0.1,0.1l-0.1,0.1l-0.1,0.1
				l-0.1,0.1l-0.1,0.1l-0.1,0.1l-0.1,0.1l-0.1,0.1l-0.1,0.1l-0.1,0.1l-0.1,0.1l-0.1,0.1l-0.1,0.1l-0.1,0.1l-0.1,0.1l-0.1,0.1
				l-0.1,0.1l-0.1,0.1l-0.1,0.1l-0.1,0.1l-0.1,0.1l-0.1,0.1l-0.1,0.1l-0.1,0.1l-0.1,0.1l-0.1,0.1l-0.1,0.1l-0.1,0.1l-0.1,0.1
				l-0.1,0.1l-0.1,0.1l-0.1,0.1l-0.1,0.1l-0.1,0.1l-0.1,0.1l-0.1,0.1l-0.1,0.1l-0.1,0.1l-0.1,0.1l-0.1,0.1l-0.1,0.1l-0.1,0.1
				l-0.1,0.1l-0.1,0.1l-0.1,0.1l-0.1,0.1l-0.1,0.1l-0.1,0.1l-0.1,0.1l-0.1,0.1l-0.1,0.1l-0.1,0.1l-0.1,0.1l-0.1,0.1l-0.1,0.1
				l-0.1,0.1l-0.1,0.1l-0.1,0.1l-0.1,0.1l-0.1,0.1l-0.1,0.1l-0.1,0.1l-0.1,0.1l-0.1,0.1l-0.1,0.1l-0.1,0.1l-0.1,0.1l-0.1,0.1
				l-0.1,0.1l-0.1,0.1l-0.1,0.1l-0.1,0.1l-0.1,0.1l-0.1,0.1l-0.1,0.1l-0.1,0.1l0,0l0,0l-0.1,0.1l-0.1,0.1l-0.1,0.1l-0.1,0.1
				l-0.1,0.1l-0.1,0.1l-0.1,0.1l-0.1,0.1l-0.1,0.1l-0.1,0.1l-0.1,0.1l-0.1,0.1l-0.1,0.1l-0.1,0.1l-0.1,0.1l-0.1,0.1l-0.1,0.1
				l-0.1,0.1l-0.1,0.1l-0.1,0.1l-0.1,0.1l-0.1,0.1l-0.1,0.1l-0.1,0.1l-0.1,0.1l-0.1,0.1l-0.1,0.1l0,0.1l0,0.1l0,0.1l0,0.1l0,0.1
				l0,0.1l0,0.1l0,0.1l0,0.1l0,0.1l0,0.1l0,0.1l0,0.1l0,0.1l0,0.1l0,0.1l0,0.1l0,0.1l0,0.1l0,0.1l0,0.1l0,0.1l0,0.1l0,0.1l0,0l0,0.1
				l0,0.1l0,0.1l0,0.1l0,0.1l0,0.1l0,0.1l0,0.1l0,0.1l0,0.1l0,0.1l0,0.1l0,0.1l0,0.1l0,0.1l0,0.1l0,0.1l0,0.1l0,0.1l0,0.1l0,0.1
				l0,0.1l0,0.1l0,0.1l0,0.1l0,0.1l0,0.1l0,0.1l0,0.1l0,0.1l0,0.1l0,0.1l0,0.1l0,0.1l0,0.1l0,0.1l0,0.1l0,0.1l0,0.1l0,0.1l0,0.1
				l0,0.1l0,0.1l0,0.1l0,0.1l0,0.1l0,0.1l0,0.1l0,0l0,0.1l0,0.1l0,0.1l0,0.1l0,0.1l0,0.1l0,0.1l0,0.1l0,0.1l0,0.1l0,0.1l0,0.1l0,0.1
				l0,0.1l0,0.1l0,0.1l0,0.1l0,0.1l0,0.1l0,0.1l0,0.1l0,0.1l0,0.1l0,0.1l0,0.1l0,0.1l0,0.1l0,0.1l-0.2,0.2l-0.2-0.2l0-0.1l0-0.1
				l0-0.1l0-0.1l0-0.1l0-0.1l0-0.1l0-0.1l0-0.1l0-0.1l0-0.1l0-0.1l0-0.1l0-0.1l0-0.1l0-0.1l0-0.1l0-0.1l0-0.1l0-0.1l0-0.1l0-0.1
				l0-0.1l0-0.1l0-0.1l0-0.1l0-0.1l0-0.1l0,0l0-0.1l0-0.1l0-0.1l0-0.1l0-0.1l0-0.1l0-0.1l0-0.1l0-0.1l0-0.1l0-0.1l0-0.1l0-0.1l0-0.1
				l0-0.1l0-0.1l0-0.1l0-0.1l0-0.1l0-0.1l0-0.1l0-0.1l0-0.1l0-0.1l0-0.1l0-0.1l0-0.1l0-0.1l0-0.1l0-0.1l0-0.1l0-0.1l0-0.1l0-0.1
				l0-0.1l0-0.1l0-0.1l0-0.1l0-0.1l0-0.1l0-0.1l0-0.1l0-0.1l0-0.1l0-0.1l0-0.1l0-0.1l0-0.1l0,0l0-0.1l0-0.1l0-0.1l0-0.1l0-0.1l0-0.1
				l0-0.1l0-0.1l0-0.1l0-0.1l0-0.1l0-0.1l0-0.1l0-0.1l0-0.1l0-0.1l0-0.1l0-0.1l0-0.1l0-0.1l0-0.1l0-0.1l0-0.1l0-0.1l0.1-0.1l0.1-0.1
				l0.1-0.1l0.1-0.1l0.1-0.1l0.1-0.1l0.1-0.1l0.1-0.1l0.1-0.1l0.1-0.1l0.1-0.1l0.1-0.1l0.1-0.1l0.1-0.1l0.1-0.1l0.1-0.1l0.1-0.1
				l0.1-0.1l0.1-0.1l0.1-0.1l0.1-0.1l0.1-0.1l0.1-0.1l0.1-0.1l0.1-0.1l0.1-0.1l0.1-0.1l0,0l0,0l0.1-0.1l0.1-0.1l0.1-0.1l0.1-0.1
				l0.1-0.1l0.1-0.1l0.1-0.1l0.1-0.1l0.1-0.1l0.1-0.1l0.1-0.1l0.1-0.1l0.1-0.1l0.1-0.1l0.1-0.1l0.1-0.1l0.1-0.1l0.1-0.1l0.1-0.1
				l0.1-0.1l0.1-0.1l0.1-0.1l0.1-0.1l0.1-0.1l0.1-0.1l0.1-0.1l0.1-0.1l0.1-0.1l0.1-0.1l0.1-0.1l0.1-0.1l0.1-0.1l0.1-0.1l0.1-0.1
				l0.1-0.1l0.1-0.1l0.1-0.1l0.1-0.1l0.1-0.1l0.1-0.1l0.1-0.1l0.1-0.1l0.1-0.1l0.1-0.1l0.1-0.1l0.1-0.1l0.1-0.1l0.1-0.1l0.1-0.1
				l0.1-0.1l0.1-0.1l0.1-0.1l0.1-0.1l0.1-0.1l0.1-0.1l0.1-0.1l0.1-0.1l0.1-0.1l0.1-0.1l0.1-0.1l0.1-0.1l0.1-0.1l0.1-0.1l0.1-0.1
				l0.1-0.1l0.1-0.1l0.1-0.1l0.1-0.1l0.1-0.1l0.1-0.1l0.1-0.1l0.1-0.1l0.1-0.1l0.1-0.1l0.1-0.1l0.1-0.1l0.1-0.1l0.1-0.1l0.1-0.1
				l0.1-0.1l0.2-0.1l0.2-0.1l0.2-0.1l0.2-0.1l0.2-0.1l0.2-0.1l0.2-0.1l0.2-0.1l0.2-0.1l0.2-0.1l0.2-0.1l0.2-0.1l0.2-0.1l0.2-0.1
				l0.2-0.1l0.2-0.1l0.2-0.1l0.2-0.1l0.2-0.1l0.2-0.1l0.2-0.1l0.2-0.1l0.2-0.1l0.2-0.1l0.1-0.1l0.1-0.1l0.1-0.1l0.1-0.1l0.1-0.1
				l0.1-0.1l0.1-0.1l0.1-0.1l0.1-0.1l0.1-0.1l0.1-0.1l0.1-0.1l0.1-0.1l0.1-0.1l0.1-0.1l0.1-0.1l0.1-0.1l0.1-0.1l0.1-0.1l0.1-0.1
				l0.1-0.1l0.1-0.1l0.1-0.1l0.1-0.1l0.1,0l0.1,0l0.1,0l0.1,0l0.1,0l0.1,0l0.2-0.1l0.2-0.1l0.2-0.1l0.2-0.1l0.2-0.1l0.5-0.2l0.2-0.1
				l0.2-0.1l0.2-0.1l0.2-0.1l0.2-0.1l0.2-0.1l0,0l0.1,0l0.1,0l0.1,0l0.1,0l0.1,0l0.1,0l0.1,0l0.1,0l0.1,0l0.1,0l0.1,0l0.1,0l0.1-0.1
				l0.1-0.1l0.1-0.1l0.1-0.1l0.1-0.1l0.1-0.1l0.1-0.1l0.1-0.1l0.1-0.1l0.1-0.1l0.1-0.1l0.1-0.1l0.1-0.1l0.1-0.1l0.1-0.1l0.1-0.1
				l0.1-0.1l0.1-0.1l0.1-0.1l0.1-0.1l0.1-0.1l0.1-0.1l0.1-0.1l0.1-0.1l0.1-0.1l0.1-0.1l0.1-0.1l0.1-0.1l0,0l0,0l0,0l0,0l0,0l0,0l0,0
				l0,0l0,0l0,0l0,0l0,0l0,0l0,0l0,0l0,0l0,0l0,0l0,0l0,0l0,0l0,0l0,0l0,0l0,0l0,0l0,0l0,0l0,0l0,0l0,0l0,0l0,0l0,0l0,0l0,0l0,0l0,0
				l0,0l0-0.1l0-0.1l0-0.1l0-0.1l0-0.1l0-0.1l0-0.1l0-0.1l0-0.1l0-0.1l0-0.1l0-0.1l0-0.1l0-0.1l0-0.1l0-0.1l0-0.1l0-0.1l0-0.1l0-0.1
				l0-0.1l0-0.1l0-0.1l0-0.1l0-0.1l0-0.1l0-0.1l0-0.1l0-0.1l0-0.1l0-0.1l0-0.1l0-0.1l0-0.1l0-0.1l0-0.1l0-0.1l0-0.1l0-0.1l0-0.1
				l0-0.1l0-0.1l0-0.1l0-0.1l0-0.1l0-0.1l0-0.1l0-0.1l0-0.1l0-0.1l0-0.1l0-0.1l0-0.1l0-0.1l0-0.1l0-0.1l0-0.1l0-0.1l0-0.1l0-0.1
				l0-0.1l0-0.1l0-0.1l0-0.1l0-0.1l0-0.1l0-0.1l0-0.1l0-0.1l0-0.1l0-0.1l0-0.1l0-0.1l0-0.1l0,0l0,0l0-0.1l0-0.1l0-0.1l0-0.1l0-0.1
				l0-0.1l0-0.1l0-0.1l0-0.1l0-0.1l0-0.1l0-0.1l0-0.1l0-0.1l0-0.1l0-0.1l0-0.1l0-0.1l0-0.1l0-0.1l0-0.1l0-0.1l0-0.1l0-0.1l0-0.1
				l0-0.1l0-0.1l0-0.1l0-0.1l0-0.1l0-0.1l0-0.1l0-0.1l0-0.1l0-0.1l0-0.1l0-0.1l0-0.1l0-0.1l0-0.1l0-0.1l0-0.1l0-0.1l0-0.1l0-0.1
				l0-0.1l0-0.1l0-0.1l0-0.1l0-0.1l0-0.1l0-0.1l0-0.1l0-0.1l0-0.1l0-0.1l0-0.1l0-0.1l0-0.1l0-0.1l0-0.1l0-0.1l0-0.1l0-0.1l0-0.1
				l0-0.1l0-0.1l0-0.1l0-0.1l0-0.1l0-0.1l0-0.1l0-0.1l0-0.1l0-0.1l0-0.1l0-0.1l0-0.1l0-0.1l0-0.1l0-0.1l0-0.1l0-0.1l0-0.1l0-0.1
				l0-0.1l0-0.1l0-0.1l0-0.1l0-0.1l0-0.1l0-0.1l-0.1-0.2l-0.1-0.2l-0.1-0.2l-0.1-0.4l-0.1-0.2l-0.1-0.2l-0.1-0.2l-0.1-0.2l0-0.1
				l0-0.1l0-0.1l0-0.1l0-0.1l0-0.1l0-0.1l0-0.1l0-0.1l0-0.1l0-0.1l0-0.1l0-0.1l0-0.1l0-0.1l0-0.1l0-0.1l0-0.1l0-0.1l0-0.1l0-0.1
				l0-0.1l0-0.1l0-0.1l0-0.1l0-0.1l0-0.1l0-0.1l0-0.1l0-0.1l0-0.1l0-0.1v-0.1l0-0.1l0-0.1l0-0.1l0-0.1l0-0.1l0-0.1l0-0.1l0-0.1
				l0-0.1l0-0.1v0l0-0.1l0-0.1l0-0.1l0-0.1l0-0.1l0-0.1l0-0.1l0-0.1l0-0.1l0-0.1l0-0.1l0-0.1l0-0.1l0-0.1l0-0.1l0-0.1l0-0.1l0-0.1
				l0-0.1l0-0.1l0-0.1l0-0.1l0-0.1l0-0.1l0-0.1l0-0.1l0-0.1l0-0.1l0-0.1l0-0.1l0-0.1l0-0.1l0-0.1l0-0.1l0-0.1l0-0.1l0-0.1l0-0.1
				l0-0.1l0-0.1l0-0.1l0-0.1l0-0.1l0-0.1l0-0.1l0-0.1l0-0.1l0,0l0-0.1l0-0.1l0-0.1l0-0.1l0-0.1l0-0.1l0-0.1l0-0.1l0-0.1l0-0.1l0-0.1
				l0-0.1l0-0.1l0-0.1l0-0.1l0-0.1l0-0.1l0-0.1l0-0.1l0-0.1l0-0.1l0-0.1l0-0.1l0-0.1l0-0.1l0-0.1l0-0.1l0-0.1l0-0.1l0-0.1l0.1-0.1
				l0-0.1l0.1-0.1l0.1-0.1l0.1-0.1l0.1-0.1l0.1-0.1l0.1-0.1l0.1-0.1l0.1-0.1l0.1-0.1l0.1-0.1l0.1-0.1l0.1-0.1l0.1-0.1l0.1-0.1
				l0.1-0.1l0.1-0.1l0.1-0.1l0.1-0.1l0.1-0.1l0.1-0.1l0.1-0.1l0.1-0.1l0.1-0.1l0.1-0.1l0.1-0.1l0.1-0.1l0.1-0.1l0,0l0.1-0.1l0.1-0.1
				l0.1-0.1l0.1-0.1l0.1-0.1l0.1,0L352.2,172.6z"/>
		</g>
	</g>
	<g transform="matrix(0.0154969,1.4523,-1.82485,0.0189623,1016.46,-91.2072)">
		<path class="st5" d="M187.9,424.7c0,0,5.8-16.4-12-31.8c-3.7-3.2-13.9-5.5-12.6,6.6C164.1,407.3,176.7,422.3,187.9,424.7z"/>
		<g>
			<defs>
				<path id="SVGID_00000137121355925479988300000006039532185942135733_" d="M187.9,424.7c0,0,5.8-16.4-12-31.8
					c-3.7-3.2-13.9-5.5-12.6,6.6C164.1,407.3,176.7,422.3,187.9,424.7z"/>
			</defs>
			<clipPath id="SVGID_00000053546443101319797400000009646746309854686392_">
				<use xlink:href="#SVGID_00000137121355925479988300000006039532185942135733_"  style="overflow:visible;"/>
			</clipPath>
			<g style="clip-path:url(#SVGID_00000053546443101319797400000009646746309854686392_);">
				<g transform="matrix(1.09129,0.115602,-0.141182,0.866832,20.3061,15.4083)">
					<path class="st0" d="M190.8,414.3c0-0.1-0.1-0.3-0.1-0.4c-0.2-2.8,0.9-5.6,3.1-7.7c0,0,0.1-0.1,0.1,0.1
						c-0.1,0.1-0.1,0.1-0.2,0.2c-2,2.5-2.8,5.8-2.1,9c0.8,1.1,1.7,2.1,2.5,3.1c0.2-1.4,0.8-4.2,3-6.2c0.6-0.6,1.6-1.3,1.6-1.3
						c0.1,0,0.2,0,0.3,0c0,0-2,2.3-3,3.6c-0.9,1.3-1.5,2.8-1.6,4.4c1.1,1.4,2.2,2.7,3.3,4.1c0,0,0.1,0,0.1,0
						c-0.1-0.3-0.1-0.6-0.1-0.9c0,0,0-1.9,0.6-3.6c0.1-0.4,1.8-3.6,4.4-5.6c0,0,0.1-0.1,0.2,0c0,0-2.9,3.5-3.7,5.3
						c-0.7,1.8-1,3.8-0.9,5.6c1,1.2,1.9,2.5,2.9,3.7c0.1-1.6,0.6-5.1,2.5-7.6c0,0,0.9-1,1.8-1.9c0,0,0.2-0.2,0.2,0.2
						c0,0-1.9,2.8-2.4,3.8c-0.1,0.2-0.2,0.4-0.3,0.6c-0.8,1.8-1.2,3.7-1.3,5.7c0.3,0.4,0.6,0.8,0.9,1.2c0.4,0.6,0.9,1.1,1.3,1.7
						c-0.1-2.6,0.9-5.1,2-7.4l1.1-1.7c0,0,0.3-0.5,0.3-0.2c0,0-0.4,0.9-0.8,2c0,0-1.4,3-1.8,5.1c-0.2,1-0.2,2-0.1,3
						c1,1.2,2.1,2.3,3.3,3.4l0.2,0.6c0,0-0.4,0.1-0.9-0.2c-1.1-1-2.2-2-3.2-3.1c-0.8,0.2-2.4,0.8-3.2,1.3c-0.9,0.6-1.7,1.3-2.3,2.3
						l-0.2,0.1c0,0,0.2-0.7,0.6-1.2c1.2-1.5,3-2.5,4.9-2.7c-1-1-1.9-2.1-2.8-3.2c-3.6-0.3-7.4,2.3-8.8,5.4l-0.2,0.1
						c0,0,0.1-0.6,0.3-1.1c1.5-2.9,4.5-5.2,7.8-5.1c0.1,0,0.2,0,0.4,0c-1.2-1.5-2.3-3-3.5-4.6c-0.9,0.2-2.3,0.6-3.4,1
						c-1.8,0.8-3.3,2.3-4.1,4l-0.2,0.1c0,0,0.7-2.5,2.5-3.8c1.4-1,3.1-1.6,4.7-1.9c-0.8-1-1.5-2-2.3-2.9l-0.5-0.6
						c-1.5-0.2-3.1-0.1-4.5,0.7c-0.3,0.2-0.7,0.4-1,0.6c-0.6,0.4-1,0.9-1.4,1.5l-0.2,0.1c0,0,1.7-3.5,5.4-3.6c0.1,0,0.1,0,0.1,0
						c0.4,0,0.8,0.1,1.2,0.1l-0.8-1c-0.7-1-1.7-2.3-1.7-2.3c-0.2-0.2-0.3-0.5-0.5-0.7c-1.4,0.3-4.7,1.2-5.7,2.3
						c-0.3,0.4-0.9,1-0.6,0.4c0.9-2.1,3.3-3.1,5.9-3.2c-1-1.5-2-2.9-3-4.5c0,0-0.4-0.5,0.1-0.4c0,0,1.5,1.8,2.4,2.9
						C190,413.3,190.4,413.8,190.8,414.3z"/>
				</g>
			</g>
		</g>
	</g>
	<g transform="matrix(1.16609,0,0,1.29149,-87.3214,-103.759)">
		<path class="st0" d="M282.2,231.5c0,0,1.9-14.8,12.4-14.8c0,0,5.4,0.5,8.9,3.8c0,0,3.9,2.8,7.1,0.6c4.2-2.9,11.2-3.6,14.6,1.3
			c3.8,5.4,11.1-5.8,16,9.4L282.2,231.5z"/>
		<g>
			<defs>
				<path id="SVGID_00000001621512334353113560000015613831546917846180_" d="M282.2,231.5c0,0,1.9-14.8,12.4-14.8
					c0,0,5.4,0.5,8.9,3.8c0,0,3.9,2.8,7.1,0.6c4.2-2.9,11.2-3.6,14.6,1.3c3.8,5.4,11.1-5.8,16,9.4L282.2,231.5z"/>
			</defs>
			<clipPath id="SVGID_00000018916792340655493350000014360732405899958408_">
				<use xlink:href="#SVGID_00000001621512334353113560000015613831546917846180_"  style="overflow:visible;"/>
			</clipPath>
			<g style="clip-path:url(#SVGID_00000018916792340655493350000014360732405899958408_);">
				<path class="st2" d="M327.4,228.2L327.4,228.2l0.1,0.1l0.1,0l0.1,0l0.1,0.1l0.1,0.1l0.1,0.1l0.1,0.1l0,0l0,0l0.1,0.1l0.1,0.1
					l0.1,0.1l0.1,0.1l0.1,0.1l0.1,0.1l0.1,0.1l0.2,0.2l0,0l0.1,0.1l0.1,0.1l0.1,0.1l0.1,0.1l0.1,0.1l0.1,0.1l0.1,0.1l0.3,0.3
					l0.3,0.3l0.2,0.1l0.2,0.1l0.2,0.1l0.1,0.1l0,0l0.2,0.2l0.2,0.2l0.2,0.2l0.1,0.1l0.1,0.1l0.1,0.1l0.1,0.1l0.1,0.1l0.1,0.1
					l0.1,0.1l0.1,0.1l0.1,0.1l0.1,0.1l0.1,0.1l0.1,0.1l0.1,0.1l0,0l0.1,0.1l0.1,0.1l0.1,0.1l0.1,0.1l0.1,0.1l0.1,0.1l0.1,0.1
					l0.1,0.1l0.1,0.1l0,0l0.1,0.1l0.1,0.1l0.1,0.1l0.1,0.1l0.1,0.1l0.1,0.1l0.1,0.1l0.1,0l0,0l0.1,0.1l0.1,0.1l0.1,0.1l0.1,0.1
					l0.1,0.1l0.1,0.1l0,0l0,0l0,0l0,0l0,0l0,0l0,0l0,0l0,0l0,0l0,0l0,0l0.1,0.2l-0.2,0.1l0,0l0,0l0,0l0,0l0,0l0,0l0,0l0,0l0,0l0,0
					l-0.1,0l0,0l-0.1,0l-0.1,0l-0.1,0l-0.1,0l-0.1,0l-0.1,0l0,0l-0.1,0l-0.1-0.1l-0.1-0.1l-0.1-0.1l-0.1-0.1l-0.1-0.1l-0.1-0.1
					l-0.1-0.1l0,0l-0.1-0.1l-0.1-0.1l-0.1-0.1l-0.1-0.1l-0.1-0.1l-0.1-0.1l-0.1-0.1l-0.1-0.1l-0.1-0.1l0,0l-0.1-0.1l-0.1-0.1
					l-0.1-0.1l-0.1-0.1l-0.1-0.1l-0.1-0.1l-0.1-0.1l-0.1-0.1l-0.1-0.1l-0.1-0.1l-0.1-0.1l-0.1-0.1l-0.1-0.1l-0.2-0.2l-0.2-0.2
					l-0.2-0.2l-0.1,0l-0.1-0.1l-0.2-0.2l-0.2-0.2l-0.1-0.1l-0.3-0.3l-0.3-0.3l-0.1-0.1l-0.1-0.1l-0.1-0.1l-0.1-0.1l-0.1-0.1
					l-0.1-0.1l-0.1-0.1l0,0l-0.2-0.2l-0.1-0.1l-0.1-0.1l0-0.1l-0.1-0.1l-0.1-0.1l-0.1-0.1l-0.1-0.1l0,0l0,0l-0.1-0.1l-0.1-0.1
					l-0.1-0.1l-0.1,0l-0.1,0l-0.1,0l-0.1,0l-0.1,0l0,0l0,0l0-0.1l0-0.1l0.1-0.1l0.1,0L327.4,228.2L327.4,228.2L327.4,228.2z"/>
				<path class="st2" d="M302.9,217.8l0,0.3l-0.5,0.5l-0.1,0.2l-0.4,0.5l-0.2,0.2L301,220l-0.7,0.6L300,221l-0.3,0.3l-0.3,0.3
					l-0.3,0.3l-0.1,0.1l-0.2,0.2l-0.3,0.3l-0.3,0.3l-0.3,0.3l-0.3,0.3l-0.2,0.2l-0.1,0.1l-0.3,0.3l-0.3,0.3l-0.3,0.3l-0.3,0.3l0,0
					l-0.2,0.1l-0.2,0.2l-0.2,0.2l-0.2,0.2l-0.2,0.2l0,0l-0.1,0.1l-0.2,0.2l-0.2,0.2l-0.2,0.2l-0.2,0.2l-0.1,0.1l0,0l-0.2,0.2
					l-0.2,0.2l-0.2,0.2l-0.2,0.2l-0.1,0.1l0,0l-0.2,0.2l-0.2,0.2l-0.2,0.2l0,0l-0.3,0L292,228l0-0.3l0,0l0.1-0.2l0.1-0.2l0.1-0.2
					l0,0l0.1-0.1l0.2-0.2l0.2-0.2l0.2-0.2l0.2-0.2l0,0l0.1-0.1l0.2-0.2l0.2-0.2l0.2-0.2l0.2-0.2l0.1-0.1l0,0l0.2-0.2l0.2-0.2
					l0.2-0.2l0.2-0.2l0.1-0.1l0,0l0.3-0.3l0.3-0.3l0.3-0.3l0.3-0.3l0.1-0.1l0.2-0.2l0.3-0.3l0.3-0.3l0.3-0.3l0.3-0.3l0.2-0.2
					l0.1-0.1l0.3-0.3l0.3-0.3l0.3-0.3l0.3-0.3l0.7-0.6l0.7-0.6l0.2-0.2l0.5-0.4l0.2-0.1l0.6-0.4L302.9,217.8z"/>
				<path class="st2" d="M292.9,227.9l0.2,0l0.1,0l0.1,0l0.1,0.1l0.2,0.2l0.2,0.1l0,0l0.2,0.2l0.2,0.2l0.2,0.2l0.1,0.1l0.1,0.1
					l0.2,0.2l0.2,0.2l0.2,0.2l0.2,0.2l0.2,0.2l0.2,0.2l0.1,0.1l0.1,0.1l0.2,0.2l0.2,0.2l0.2,0.2l0.2,0.2l0,0l0.2,0.2l0.2,0.2
					l0.1,0.1l0.1,0.1l0.2,0.2l0.1,0.1l0.1,0.1l0.2,0.2l0.1,0.2l0,0l0.2,0.2l0.2,0.2l0.1,0.1l0.1,0.1l0.2,0.2l0.2,0.2l0.2,0.2l0,0.2
					l-0.2,0l-0.2-0.2l-0.2-0.2l-0.2-0.2l-0.1-0.1l-0.1-0.1l-0.2-0.2l-0.2-0.2l0,0l-0.2-0.1l-0.2-0.2l-0.1-0.1l-0.1-0.1l-0.2-0.2
					l-0.1-0.1l-0.1-0.1l-0.2-0.2l-0.2-0.1l0,0l-0.2-0.2l-0.2-0.2l-0.2-0.2l-0.2-0.2l-0.1-0.1l-0.1-0.1l-0.2-0.2l-0.2-0.2l-0.2-0.2
					l-0.2-0.2l-0.2-0.2l-0.2-0.2l-0.1-0.1l-0.1-0.1l-0.2-0.2l-0.2-0.2l-0.2-0.2l0,0l-0.2-0.2l-0.2-0.2l-0.1-0.1l0-0.1l0-0.1
					l-0.1-0.2l0,0l0-0.2L292.9,227.9L292.9,227.9z"/>
				<path class="st2" d="M311.1,219.4l-0.2,0.3l-0.2,0.3l-0.2,0.3l-0.2,0.3l-0.3,0.5l-0.1,0.1l-0.3,0.5l-0.1,0.1l-0.5,0.6l-0.3,0.4
					l-0.1,0.2l-0.5,0.6l-0.2,0.3l-0.2,0.3l0,0l-0.2,0.3l-0.2,0.3l-0.2,0.3l-0.2,0.3l-0.2,0.3l-0.2,0.3l-0.2,0.3l-0.2,0.3l-0.1,0.2
					l-0.1,0.1L305,227l-0.2,0.3l-0.3,0.3l0,0l-0.2,0.3l-0.2,0.3l0,0l-0.3,0.3l0,0l-0.4,0.2l-0.2,0l0-0.2l0.1-0.4l0,0l0.2-0.3l0,0
					l0.2-0.3l0.2-0.3l0,0l0.2-0.3l0.2-0.3l0.2-0.3l0.1-0.1l0.2-0.2l0.2-0.3l0.2-0.3l0.2-0.3l0.2-0.3l0.2-0.3l0.2-0.3l0.2-0.3
					l0.2-0.2l0,0l0.2-0.3l0.2-0.3l0.5-0.6l0.2-0.2l0.3-0.4l0.5-0.6l0.1-0.1l0.4-0.4l0.1-0.1l0.4-0.4l0.2-0.3l0.3-0.3l0.3-0.3
					l0.3-0.3l0.2,0L311.1,219.4z"/>
				<path class="st2" d="M309.1,228.3L309.1,228.3l0.1,0.1l0.1,0l0.1,0l0.1,0l0.1,0l0.1,0l0.1,0l0.1,0l0.1,0l0,0l0,0l0.1,0l0.1,0
					l0.1,0l0.1,0l0.1,0l0.1,0l0.1,0l0.1,0l0.1,0l0.1,0l0.1,0l0,0.1l0,0.1l0,0l0,0l0,0.1l0,0.1l0,0.1l0,0.1l0,0.1l0,0.1l0,0.1l0,0.1
					l0.1,0.1l0.1,0.1l0.1,0.1l0.1,0.1l0.1,0.1l0.1,0.1l0.1,0.1l0.2,0.2l0.2,0.2l0.1,0.1l0.1,0.1l0.1,0.1l0.1,0.1l0.1,0.1l0.1,0.1
					l0.1,0.1l0,0l0.1,0.1l0.1,0.1l0.1,0.1l0.1,0.1l0.1,0.1l0.1,0.1l0.1,0.1l0,0l0.1,0.1l0.1,0.1l0.1,0.1l0.1,0.1l0.1,0.1l0.1,0.1
					l0.1,0.1l0.1,0.1l0.1,0.1l0.1,0.1l0.1,0.1l0,0l0.1,0.1l0.1,0.1l0.1,0.1l0.1,0.1l0.1,0.1l0.1,0.1l0,0l0.1,0.1l0.1,0.1l0.1,0.1
					l0.1,0.1l0.1,0.1l0,0.1l-0.1,0l-0.1-0.1l-0.1-0.1l-0.1-0.1l-0.1-0.1l-0.1-0.1l0,0l-0.1-0.1l-0.1-0.1l-0.1-0.1l-0.1-0.1l-0.1-0.1
					l-0.1-0.1l0,0l-0.1-0.1l-0.1-0.1l-0.1-0.1l-0.1-0.1l-0.1-0.1l-0.1-0.1l-0.1-0.1l-0.1-0.1l-0.1-0.1l-0.1-0.1l-0.1-0.1l0,0
					l-0.1-0.1l-0.1-0.1l-0.1-0.1l-0.1-0.1l-0.1-0.1l-0.1-0.1l-0.1-0.1l0,0l-0.1-0.1l-0.1-0.1l-0.1-0.1l-0.1-0.1l-0.1-0.1l-0.1-0.1
					l-0.1-0.1l0,0l-0.2-0.2l-0.2-0.2l-0.1-0.1l-0.1-0.1l-0.1-0.1l-0.1-0.1l-0.1-0.1l-0.1-0.1l-0.1-0.1l0,0l0,0l0,0l0,0l0,0l0,0l0,0
					l0,0l0,0l0,0l0,0l0,0l0,0l0,0l0,0l0,0l0,0l0,0l0,0l0,0l0,0l0,0l0,0l0,0l0,0l0,0l0,0l0,0l0,0l0,0l0,0l0,0l0,0l0,0l0,0l0,0
					l0.1-0.2l0.1-0.2L309.1,228.3L309.1,228.3z"/>
				<path class="st2" d="M325.2,218.1l-0.2,0.2l-0.2,0.2l-0.2,0.2l-0.2,0.2l-0.2,0.2l-0.2,0.2l-0.2,0.2l0,0l-0.2,0.2l-0.2,0.2
					l-0.2,0.2l-0.2,0.2l-0.2,0.2l-0.2,0.2l-0.1,0.1l-0.1,0.1l-0.2,0.2l-0.2,0.2l-0.2,0.2l-0.2,0.2l-0.2,0.2l0,0l-0.2,0.2l-0.2,0.2
					l-0.2,0.2l-0.2,0.2l-0.2,0.2l-0.2,0.2l-0.1,0.1l-0.1,0.1l-0.4,0.4l-0.4,0.4l-0.4,0.4l-0.1,0.1l0,0l-0.1,0.1l-0.1,0.1l-0.1,0.1
					l-0.1,0.1l-0.1,0.1l-0.2,0.2l-0.2,0.2l-0.2,0.2l-0.2,0.2l-0.1,0.1l-0.1,0.1l-0.1,0.1l-0.1,0.1l-0.1,0.1l-0.1,0.1l-0.1,0.1
					l-0.1,0.1l0,0l-0.1,0.1l-0.1,0.1l-0.1,0.1l-0.1,0.1l-0.1,0.1l0,0.1l0,0.1l0,0.1l0,0.1l0,0l-0.1,0l-0.1,0l-0.1,0l-0.1,0l-0.1,0
					l-0.1,0l-0.2,0l0-0.2l0-0.1l0-0.1l0-0.1l0-0.1l0-0.1l0-0.1l0,0l0-0.1l0-0.1l0-0.1l0-0.1l0.1-0.1l0.1-0.1l0.1-0.1l0.1-0.1
					l0.1-0.1l0,0l0.1-0.1l0.1-0.1l0.1-0.1l0.1-0.1l0.1-0.1l0.1-0.1l0.1-0.1l0.1-0.1l0.2-0.2l0.2-0.2l0.2-0.2l0.2-0.2l0.1-0.1
					l0.1-0.1l0.1-0.1l0.1-0.1l0.1-0.1l0,0l0.1-0.1l0.4-0.4l0.4-0.4l0.4-0.4l0.1-0.1l0.1-0.1l0.2-0.2l0.2-0.2l0.2-0.2l0.2-0.2
					l0.2-0.2l0.2-0.2l0,0l0.2-0.2l0.2-0.2l0.2-0.2l0.2-0.2l0.2-0.2l0.1-0.1l0.1-0.1l0.2-0.2l0.2-0.2l0.2-0.2l0.2-0.2l0.2-0.2
					l0.2-0.2l0,0l0.2-0.2l0.2-0.2l0.2-0.2l0.2-0.2l0.2-0.2l0.2-0.2l0.2-0.2l0.2,0L325.2,218.1z"/>
				<path class="st2" d="M288.9,227.4l0.2,0l0.2,0l0.2,0l0.2,0l0.2,0l0.4,0l0.4,0l0.4,0l0.4,0l0.3,0l0.1,0l0.4,0l0.4,0l0.4,0l0.4,0
					l0.4,0l0.3,0l0.7,0l1.4,0.1l0.7,0l0.3,0l0.3,0l0.3,0l0.3,0l0.3,0l0,0l0.3,0l0.3,0l0.3,0l0.3,0l0.3,0l0.3,0l0.2,0l0.2,0l0.5,0
					l0.5,0l0.5,0l0.5,0l0.5,0l0.6,0l0.6,0l0.2,0l0.4,0l0.6,0l0.6,0l0.6,0l0.6,0l1.3,0l1.3,0l1.3,0l1.3,0l2.7,0l1.4,0l1.4,0l0.9,0
					l0.6,0l1.4,0l0.7,0l0.7,0l0.7,0l0.7,0l0.7,0l0.7,0l0.7,0l0.2,0l0.6,0l0.7,0l0.7,0l0.7,0l0.7,0l0.7,0l0.7,0l0.7,0l0.3,0l0.4,0
					l0.7,0l0.7,0l0.7,0l0.2,0l0.5,0l0.6,0l0.6,0l0.6,0l0.6,0l0.4,0l0.2,0l0.3,0l0.3,0l0.3,0l0.3,0l0.3,0l0.3,0l0.3,0l0.3,0l0.3,0
					l0.3,0l0.3,0l0.3,0l0.3,0l0.3,0l0.1,0.1l-0.1,0.1l-0.3,0l-0.3,0l-0.3,0l-0.3,0l-0.3,0l-0.3,0l-0.3,0l-0.3,0l-0.3,0l-0.3,0
					l-0.3,0l-0.3,0l-0.3,0l-0.3,0l-0.2,0l-0.4,0l-0.6,0l-0.6,0l-0.6,0l-0.6,0l-0.5,0H334l-0.7,0l-0.7,0l-0.7,0l-0.4,0l-0.3,0l-0.7,0
					l-0.7,0h-0.7h-0.7l-0.7,0l-0.7,0l-0.7,0l-0.6,0l-0.2,0l-0.7,0l-0.7,0l-0.7,0l-0.7,0l-0.7,0l-0.7,0l-0.7,0l-1.4,0l-0.6,0l-0.9,0
					l-1.4,0l-1.4,0l-2.7,0l-1.3,0l-1.3,0l-1.3,0l-1.3,0l-0.6,0l-0.6,0l-0.6,0h-0.6h-0.4l-0.2,0l-0.6,0l-0.6,0l-0.6,0l-0.5,0l-0.5,0
					l-0.5,0l-0.5,0l-0.2,0l-0.2,0l-0.3,0l-0.3,0l-0.3,0l-0.3,0l-0.3,0l-0.3,0l0,0l-0.3,0l-0.3,0l-0.3,0l-0.3,0l-0.3,0l-0.7,0l-0.7,0
					l-0.7,0l-0.7,0l-0.3,0l-0.3,0l-0.3,0l-0.3,0l-0.3,0l-0.3,0l-0.1,0l-0.2,0l-0.3,0l-0.3,0l-0.3,0l-0.3,0l-0.2,0l-0.2,0l-0.2,0
					l-0.2,0l-0.2,0l-0.2,0l-0.2,0l-0.2,0l-0.2,0l-0.2,0h-0.2l-0.2,0l-0.2,0l-0.2,0l-0.2,0l-0.2,0l-0.2,0l-0.2,0l-0.2,0l-0.2,0
					l-0.2,0l-0.2,0l-0.2,0l-0.2,0l-0.2,0l-0.2,0l-0.2,0l-0.2,0l-0.2,0l-0.2,0l-0.2,0l-0.2,0l-0.2,0l-0.2,0l-0.2,0l-0.2,0l-0.2,0
					l-0.2,0l-0.2,0l-0.2,0l-0.2,0l-0.2,0l-0.2,0l-0.2,0l-0.2,0l-0.2,0l-0.2,0l-0.2,0l-0.2,0l-0.2,0l0,0l-0.1,0l-0.2,0l-0.2,0l-0.2,0
					l-0.2,0l-0.2,0l-0.2,0l-0.2,0l-0.2,0l-0.2,0l-0.2,0l-0.2,0l-0.2,0l-0.2,0l-0.2,0l0,0l-0.2-0.1l-0.1-0.2l0.1-0.2l0,0l0.2-0.1
					l0.2,0l0.2,0l0.2,0l0.2,0l0.2,0l0.2,0l0.2,0l0.2,0l0.2,0l0.2,0l0.2,0l0.2,0l0.2,0l0.1,0l0,0l0.2,0l0.2,0l0.2,0l0.2,0l0.2,0
					l0.2,0l0.2,0l0.2,0l0.2,0l0.2,0l0.2,0l0.2,0l0.2,0l0.2,0l0.2,0l0.2,0l0.2,0l0.2,0l0.2,0l0.2,0l0.2,0l0.2,0l0.2,0l0.2,0l0.2,0
					l0.2,0l0.2,0l0.2,0l0.2,0l0.2,0l0.2,0l0.2,0l0.2,0l0.2,0l0.2,0l0.2,0l0.2,0l0.2,0l0.2,0l0.2,0l0.2,0l0.2,0l0.2,0h0.2H288.9z"/>
			</g>
		</g>
	</g>
	<g transform="matrix(0.883557,0.468324,-0.468324,0.883557,6.70835,-132.112)">
		<g transform="matrix(0.995686,-0.0927892,0.103397,1.10951,-19.3863,-4.24235)">
			
				<rect x="283.8" y="120.7" transform="matrix(-0.9873 0.1587 -0.1587 -0.9873 646.4152 295.923)" class="st16" width="55.1" height="106"/>
		</g>
		<g transform="matrix(0.829376,-0.0772906,0.0772906,0.829376,47.7585,57.4485)">
			<polygon class="st9" points="246.7,125.6 313.9,94.3 352.9,177.1 285.7,208.4 			"/>
			<g>
				<defs>
					<polygon id="SVGID_00000075881157213522920050000001844533098802472089_" points="246.7,125.6 313.9,94.3 352.9,177.1 
						285.7,208.4 					"/>
				</defs>
				<clipPath id="SVGID_00000049213309991101954330000007703718025364243848_">
					<use xlink:href="#SVGID_00000075881157213522920050000001844533098802472089_"  style="overflow:visible;"/>
				</clipPath>
				<g style="clip-path:url(#SVGID_00000049213309991101954330000007703718025364243848_);">
					<g transform="matrix(1.19535,0.111396,-0.111396,1.19535,-50.6884,-73.9908)">
						<path class="st18" d="M293.6,198.7c0,0-1.4-29.8,2.4-31.5c4.7-2.1,22.1,12.3,22.1,12.3s-1.3-14.5,2.9-16.6
							c5.3-2.6,38.5,12.6,38.5,12.6l-60.7,34.3L293.6,198.7z"/>
					</g>
				</g>
			</g>
		</g>
		<g transform="matrix(1,0,0,1,4.12357,7.25253)">
			
				<ellipse transform="matrix(0.3885 -0.9214 0.9214 0.3885 67.5451 366.7366)" class="st18" cx="310.1" cy="132.5" rx="8.5" ry="8.5"/>
		</g>
	</g>
	<g transform="matrix(0.883557,0.468324,-0.468324,0.883557,6.70835,-132.112)">
		<g transform="matrix(0.995686,-0.0927892,0.103397,1.10951,-19.3863,-4.24235)">
			
				<rect x="211.2" y="153.6" transform="matrix(-0.3674 0.9301 -0.9301 -0.3674 525.231 11.4346)" class="st19" width="95.2" height="61.5"/>
		</g>
		<g transform="matrix(0.829376,-0.0772906,0.0772906,0.829376,47.7585,57.4485)">
			<polygon class="st9" points="199.3,119.4 273.5,119.4 273.8,210.9 199.7,210.9 			"/>
			<g>
				<defs>
					<polygon id="SVGID_00000105399189627064342540000002340888661661594002_" points="199.3,119.4 273.5,119.4 273.8,210.9 
						199.7,210.9 					"/>
				</defs>
				<clipPath id="SVGID_00000129910990986554663730000010595185792929422000_">
					<use xlink:href="#SVGID_00000105399189627064342540000002340888661661594002_"  style="overflow:visible;"/>
				</clipPath>
				<g style="clip-path:url(#SVGID_00000129910990986554663730000010595185792929422000_);">
					<g transform="matrix(1.19535,0.111396,-0.111396,1.19535,-50.6884,-73.9908)">
						<path class="st18" d="M227.2,205.3c0,0,11.3-27.6,15.5-27.5c5.2,0.1,14.8,20.5,14.8,20.5s5-13.7,9.6-13.8
							c5.9-0.2,29.6,27.7,29.6,27.7l-69.5,5.4L227.2,205.3z"/>
					</g>
				</g>
			</g>
		</g>
		<g transform="matrix(1,0,0,1,4.12357,7.25253)">
			
				<ellipse transform="matrix(0.9906 -0.1368 0.1368 0.9906 -18.4613 37.9063)" class="st18" cx="266.6" cy="153.3" rx="8.5" ry="8.5"/>
		</g>
	</g>
	<g transform="matrix(0.521577,0,1.12658e-32,0.58584,314.652,137.12)">
		<path class="st21" d="M-197.8-102.4c-2.2-6-6.9-10.9-12.8-13.4c0-0.8,0-1.7-0.1-2.5c-1.1-15.6-14.6-27.3-30.1-26.2
			c-8.9,0.6-16.5,5.3-21.2,12.1c-3.8-9-13-15-23.3-14.3c-12.9,0.9-22.7,12.1-21.8,25c0,0.2,0,0.5,0.1,0.7c-2.7-2.2-6.1-3.5-9.8-3.5
			c-8.5,0-15.5,6.9-15.5,15.5c0,2.1,0.4,4.1,1.2,6c-19.8-4-35.4,10.8-32.6,23.6h198.9C-164.8-79.5-167.5-105.4-197.8-102.4"/>
		<g>
			<defs>
				<path id="SVGID_00000132778132961458562350000015332664459505739198_" d="M-197.8-102.4c-2.2-6-6.9-10.9-12.8-13.4
					c0-0.8,0-1.7-0.1-2.5c-1.1-15.6-14.6-27.3-30.1-26.2c-8.9,0.6-16.5,5.3-21.2,12.1c-3.8-9-13-15-23.3-14.3
					c-12.9,0.9-22.7,12.1-21.8,25c0,0.2,0,0.5,0.1,0.7c-2.7-2.2-6.1-3.5-9.8-3.5c-8.5,0-15.5,6.9-15.5,15.5c0,2.1,0.4,4.1,1.2,6
					c-19.8-4-35.4,10.8-32.6,23.6h198.9C-164.8-79.5-167.5-105.4-197.8-102.4"/>
			</defs>
			<clipPath id="SVGID_00000075138519262584950800000006345235852562520203_">
				<use xlink:href="#SVGID_00000132778132961458562350000015332664459505739198_"  style="overflow:visible;"/>
			</clipPath>
			<g style="clip-path:url(#SVGID_00000075138519262584950800000006345235852562520203_);">
				<g transform="matrix(0.988652,0,-2.1281e-32,0.985249,-284.732,-152.763)">
					<path class="st18" d="M2.7,55.3l-16.1-0.5l25.5-27.2L37.9,56l-15.4-0.4v27.8H2.7V55.3z"/>
				</g>
			</g>
		</g>
	</g>
</g>
</svg>
