<?xml version="1.0" encoding="utf-8"?>
<!-- Generator: Adobe Illustrator 25.4.1, SVG Export Plug-In . SVG Version: 6.00 Build 0)  -->
<svg version="1.1" id="Layer_1" xmlns="http://www.w3.org/2000/svg" xmlns:xlink="http://www.w3.org/1999/xlink" x="0px" y="0px"
	 viewBox="0 0 350 250" style="enable-background:new 0 0 350 250;" xml:space="preserve">
<style type="text/css">
	.st0{fill:#D7E0E8;}
	.st1{filter:url(#Adobe_OpacityMaskFilter);}
	.st2{fill:url(#SVGID_00000154406090637495288720000014041601723185956248_);}
	.st3{mask:url(#SVGID_1_);}
	.st4{fill:#1F2124;}
</style>
<rect class="st0" width="350" height="250"/>
<g>
	<g>
		
			<image style="overflow:visible;" width="602" height="602" xlink:href="C96D839B.png"  transform="matrix(0.24 0 0 0.24 109.68 52.56)">
		</image>
	</g>
	<defs>
		<filter id="Adobe_OpacityMaskFilter" filterUnits="userSpaceOnUse" x="109.7" y="52.6" width="144.5" height="144.5">
			<feColorMatrix  type="matrix" values="1 0 0 0 0  0 1 0 0 0  0 0 1 0 0  0 0 0 1 0"/>
		</filter>
	</defs>
	<mask maskUnits="userSpaceOnUse" x="109.7" y="52.6" width="144.5" height="144.5" id="SVGID_1_">
		<g class="st1">
			
				<linearGradient id="SVGID_00000013889559568360646960000004385842494622672539_" gradientUnits="userSpaceOnUse" x1="1550.1328" y1="1711.4355" x2="1694.2596" y2="1711.4355" gradientTransform="matrix(-0.7071 -0.7071 1.1866 -1.1866 -734.7783 3266.1099)">
				<stop  offset="0" style="stop-color:#000000"/>
				<stop  offset="1.863472e-02" style="stop-color:#070707"/>
				<stop  offset="4.573842e-02" style="stop-color:#1A1A1A"/>
				<stop  offset="7.801803e-02" style="stop-color:#3A3A3A"/>
				<stop  offset="0.1143" style="stop-color:#676767"/>
				<stop  offset="0.1539" style="stop-color:#9F9F9F"/>
				<stop  offset="0.1957" style="stop-color:#E3E3E3"/>
				<stop  offset="0.2114" style="stop-color:#FFFFFF"/>
			</linearGradient>
			<polygon style="fill:url(#SVGID_00000013889559568360646960000004385842494622672539_);" points="183.5,-48.2 285.4,53.7 
				114.4,224.7 12.5,122.8 			"/>
		</g>
	</mask>
	<g class="st3">
		<g>
			
				<image style="overflow:visible;" width="602" height="602" xlink:href="C96D8399.png"  transform="matrix(0.24 0 0 0.24 109.68 52.56)">
			</image>
		</g>
	</g>
	<g>
		<path class="st0" d="M141.2,68.4h81.6c8.5,0,15.5,7,15.5,15.5v81.6c0,8.5-7,15.5-15.5,15.5h-81.6c-8.5,0-15.5-7-15.5-15.5V83.9
			C125.7,75.4,132.7,68.4,141.2,68.4z"/>
	</g>
</g>
<g>
	<circle class="st4" cx="182" cy="125.6" r="9"/>
	<path class="st4" d="M197.8,131.2c1.4-1.4,2.9-2.4,4.7-3.2c1.8-0.8,3.8-1.2,5.7-1.2c0.2,0,0.4,0,0.6,0c1,0,1.8-0.8,1.8-1.8v-8.6
		v-0.4c0-1.7-0.7-3.2-1.8-4.3c-1.1-1.1-2.7-1.8-4.3-1.8c-1.6,0-3.5-0.3-5.1-1.1c0,0,0,0,0,0c-1.2-0.6-2.2-1.6-2.8-2.9
		c-0.3-0.5-0.6-1-0.8-1.6c-1.2-2.6-4.6-3.5-7.7-3.5h-12.4c-3.1,0-6.5,0.9-7.7,3.5c-0.3,0.6-0.5,1.1-0.8,1.6
		c-0.8,1.4-1.8,2.3-2.8,2.9c0,0,0,0,0,0c-1.5,0.9-3.1,1.1-4.7,1.1c-3.6,0-6.6,2.9-6.6,6.6V136c0,4.1,3.3,7.4,7.4,7.4h31.1
		c1,0,1.8-0.8,1.8-1.8c0,0,0,0,0,0c0-2,0.4-3.9,1.2-5.7C195.4,134.1,196.5,132.5,197.8,131.2z M192.9,130.2
		c-0.6,1.4-1.5,2.7-2.5,3.8c-1.1,1.1-2.4,1.9-3.8,2.5c-1.5,0.6-3,0.9-4.6,0.9c-1.6,0-3.2-0.3-4.6-0.9c-1.4-0.6-2.7-1.5-3.8-2.5
		c-1.1-1.1-1.9-2.4-2.5-3.8c-0.6-1.5-0.9-3-0.9-4.6c0-1.6,0.3-3.2,0.9-4.6c0.6-1.4,1.5-2.7,2.5-3.8c1.1-1.1,2.4-1.9,3.8-2.5
		c1.5-0.6,3-0.9,4.6-0.9c1.6,0,3.2,0.3,4.6,0.9c1.4,0.6,2.7,1.5,3.8,2.5c1.1,1.1,1.9,2.4,2.5,3.8c0.6,1.5,0.9,3,0.9,4.6
		C193.8,127.2,193.5,128.8,192.9,130.2z"/>
	<path class="st4" d="M208.3,129.2c-6.9,0-12.4,5.6-12.4,12.4c0,6.9,5.6,12.4,12.4,12.4c6.9,0,12.4-5.6,12.4-12.4
		C220.7,134.7,215.1,129.2,208.3,129.2z M213.1,141.6L213.1,141.6c-0.5,0.5-1.2,0.5-1.7,0l-1.9-1.9v6.7c0,0.7-0.5,1.2-1.2,1.2
		c-0.7,0-1.2-0.5-1.2-1.2v-6.7l-1.9,1.9c-0.5,0.5-1.2,0.5-1.7,0h0c-0.5-0.5-0.5-1.2,0-1.7l4-4c0,0,0,0,0,0c0,0,0,0,0,0c0,0,0,0,0,0
		c0,0,0,0,0,0c0,0,0,0,0,0c0,0,0,0,0,0c0,0,0,0,0,0c0,0,0,0,0,0c0,0,0,0,0,0c0,0,0,0,0,0c0,0,0,0,0,0c0,0,0,0,0,0c0,0,0,0,0,0
		c0,0,0,0,0,0c0,0,0,0,0,0c0,0,0,0,0,0c0,0,0,0,0,0c0,0,0,0,0,0c0,0,0,0,0,0c0,0,0,0,0,0c0,0,0,0,0,0c0,0,0,0,0,0c0,0,0,0,0,0
		c0,0,0,0,0,0c0,0,0,0,0,0c0,0,0,0,0,0c0,0,0,0,0,0c0,0,0,0,0,0c0,0,0,0,0,0c0,0,0,0,0,0c0,0,0,0,0,0c0,0,0,0,0.1,0s0,0,0.1,0
		c0,0,0,0,0,0c0,0,0,0,0,0c0,0,0,0,0,0c0,0,0,0,0,0c0,0,0,0,0,0c0,0,0,0,0,0c0,0,0,0,0,0c0,0,0,0,0,0c0,0,0,0,0,0c0,0,0,0,0,0
		c0,0,0,0,0,0c0,0,0,0,0,0c0,0,0,0,0,0c0,0,0,0,0,0c0,0,0,0,0,0c0,0,0,0,0,0c0,0,0,0,0,0c0,0,0,0,0,0c0,0,0,0,0,0c0,0,0,0,0,0
		c0,0,0,0,0,0c0,0,0,0,0,0c0,0,0,0,0,0c0,0,0,0,0,0c0,0,0,0,0,0c0,0,0,0,0,0c0,0,0,0,0,0c0,0,0,0,0,0c0,0,0,0,0,0c0,0,0,0,0,0
		c0,0,0,0,0,0l4,4C213.5,140.4,213.5,141.1,213.1,141.6z"/>
</g>
<g>
	<path d="M137.5,201.4c0,2.4-1.7,3.8-4.5,3.8h-3v3.5h-1.2v-11.1h4.1C135.8,197.6,137.5,199,137.5,201.4z M136.3,201.4
		c0-1.8-1.2-2.8-3.4-2.8H130v5.5h2.9C135.1,204.1,136.3,203.1,136.3,201.4z"/>
	<path d="M147.6,203.8v4.8h-1.1v-4.7c0-1.8-0.9-2.7-2.5-2.7c-1.8,0-2.9,1.1-2.9,3v4.4h-1.1v-11.8h1.1v4.9c0.6-1,1.7-1.5,3.1-1.5
		C146.2,200.3,147.6,201.4,147.6,203.8z"/>
	<path d="M149.8,204.5c0-2.5,1.8-4.2,4.2-4.2c2.4,0,4.2,1.8,4.2,4.2c0,2.5-1.8,4.2-4.2,4.2C151.6,208.7,149.8,207,149.8,204.5z
		 M157.2,204.5c0-1.9-1.3-3.2-3.1-3.2s-3.1,1.3-3.1,3.2s1.3,3.2,3.1,3.2S157.2,206.4,157.2,204.5z"/>
	<path d="M165,208.2c-0.4,0.4-1.1,0.6-1.8,0.6c-1.6,0-2.4-0.9-2.4-2.4v-5h-1.5v-1h1.5v-1.8h1.1v1.8h2.5v1h-2.5v5
		c0,1,0.5,1.5,1.4,1.5c0.5,0,0.9-0.1,1.2-0.4L165,208.2z"/>
	<path d="M165.9,204.5c0-2.5,1.8-4.2,4.2-4.2c2.4,0,4.2,1.8,4.2,4.2c0,2.5-1.8,4.2-4.2,4.2C167.7,208.7,165.9,207,165.9,204.5z
		 M173.2,204.5c0-1.9-1.3-3.2-3.1-3.2s-3.1,1.3-3.1,3.2s1.3,3.2,3.1,3.2S173.2,206.4,173.2,204.5z"/>
	<path d="M181,203.9v-6.4h1.2v6.3c0,2.6,1.2,3.8,3.4,3.8c2.2,0,3.4-1.2,3.4-3.8v-6.3h1.1v6.4c0,3.2-1.7,4.8-4.5,4.8
		C182.7,208.8,181,207.1,181,203.9z"/>
	<path d="M201.8,204.5c0,2.5-1.8,4.2-4.1,4.2c-1.3,0-2.5-0.6-3.2-1.6v4.6h-1.1v-11.4h1.1v1.6c0.7-1.1,1.8-1.7,3.2-1.7
		C200,200.3,201.8,202,201.8,204.5z M200.7,204.5c0-1.9-1.3-3.2-3.1-3.2c-1.8,0-3.1,1.3-3.1,3.2c0,1.9,1.3,3.2,3.1,3.2
		C199.3,207.7,200.7,206.4,200.7,204.5z"/>
	<path d="M204.1,196.9h1.1v11.8h-1.1V196.9z"/>
	<path d="M207.5,204.5c0-2.5,1.8-4.2,4.2-4.2c2.4,0,4.2,1.8,4.2,4.2c0,2.5-1.8,4.2-4.2,4.2C209.3,208.7,207.5,207,207.5,204.5z
		 M214.8,204.5c0-1.9-1.3-3.2-3.1-3.2s-3.1,1.3-3.1,3.2s1.3,3.2,3.1,3.2S214.8,206.4,214.8,204.5z"/>
	<path d="M224.5,203.5v5.2h-1.1v-1.3c-0.5,0.9-1.5,1.4-2.9,1.4c-1.9,0-3-1-3-2.4c0-1.3,0.8-2.4,3.2-2.4h2.6v-0.5
		c0-1.4-0.8-2.2-2.4-2.2c-1.1,0-2.1,0.4-2.8,1l-0.5-0.8c0.8-0.7,2.1-1.1,3.4-1.1C223.3,200.3,224.5,201.3,224.5,203.5z M223.4,206.2
		v-1.4h-2.6c-1.6,0-2.1,0.6-2.1,1.5c0,1,0.8,1.6,2.1,1.6C222,207.9,223,207.3,223.4,206.2z"/>
	<path d="M235.2,196.9v11.8h-1.1V207c-0.7,1.1-1.8,1.7-3.2,1.7c-2.4,0-4.1-1.7-4.1-4.2c0-2.5,1.8-4.2,4.1-4.2c1.3,0,2.5,0.6,3.2,1.6
		v-5H235.2z M234.1,204.5c0-1.9-1.3-3.2-3.1-3.2c-1.8,0-3.1,1.3-3.1,3.2s1.3,3.2,3.1,3.2C232.8,207.7,234.1,206.4,234.1,204.5z"/>
</g>
<rect x="171.7" y="217" width="20.6" height="1.1"/>
</svg>
